<svg id="Layer_1" data-name="Layer 1" xmlns="http://www.w3.org/2000/svg" viewBox="0 0 300 300"><defs><style>.cls-1{fill:#419de3;}</style></defs><title>-icon-color</title><path class="cls-1" d="M161,47.42a74.54,74.54,0,0,1,14,2.74,69.86,69.86,0,0,1,17.65,7.78c30.56,18.92,46.59,45.86,45,82.29-.23,5.32.53,6.81,6.51,6.61,29.68-1,53.69,20.67,55.26,50.21,1.74,32.92-24.88,56-51.69,55.89-57.39-.17-114.77,0-172.16-.05-38.32,0-64.47-20.34-74.08-57.49-.07-.29-.31-2.68-.56-4.51a42.74,42.74,0,0,1-.43-6v-6.68a68.72,68.72,0,0,1,.79-10.43c.34-2.22.68-4.45.88-5.14,8.49-29.82,28.27-47.41,58.3-53.84,3.13-.67,4.4-2.35,5.59-5.15C77.55,76.43,97,57.92,125.81,49.88c1.46-.41,2.65-.71,5.19-1.22A128.2,128.2,0,0,1,161,47.42Zm-2.28,187.71q42.36,0,84.72,0A43.15,43.15,0,0,0,253.84,234c15.39-3.77,28.22-18.07,27.14-36.26-.91-15.5-13.29-29.67-29.35-32.11a32.39,32.39,0,0,0-17.93,2c-4,1.73-3.77,6.45-6,9.5-1.19,1.63-2,3.52-3.06,5.24-7.4,12-7.3,11.88-17.91,2.58-3.08-2.7-3.54-4.37-1-7.93,10.87-15,15.86-31.73,13.23-50.45-6.46-45.95-52.67-73.26-95.79-56.26C106.43,77,93.69,88.28,86.06,104.89c-.92,2-2.2,4.08,1.49,4.84,14.66,3,27.49,10.36,40.5,17.26,12.15,6.44,12,6.43,5.11,18.62-1.87,3.29-3.37,3.25-6.41,1.63-10.09-5.35-20.16-10.82-30.6-15.42-21.26-9.37-41.63-7.54-59.21,8.17-16.8,15-22.72,34.19-16.3,56.13,6.71,23,28.65,38.89,52.79,39C101.86,235.2,130.28,235.12,158.71,235.13Z"/></svg>