<?xml version="1.0" encoding="utf-8"?>
<!-- Generator: Adobe Illustrator 24.0.3, SVG Export Plug-In . SVG Version: 6.00 Build 0)  -->
<svg version="1.1" id="Layer_1" xmlns="http://www.w3.org/2000/svg" xmlns:xlink="http://www.w3.org/1999/xlink" x="0px" y="0px"
	 viewBox="0 0 300 300" style="enable-background:new 0 0 300 300;" xml:space="preserve">
<style type="text/css">
	.st0{fill:#231F20;}
	.st1{fill:#C5C7C9;}
	.st2{fill:#87D5F7;}
</style>
<rect x="0.5" y="0.5" class="st0" width="299" height="299"/>
<g>
	<g>
		<path class="st1" d="M65.7,157.4c0.8,0,1.1,1,1.1,2.9c0,1.1-0.4,2.3-1.3,3.9c-0.9,1.5-2,2.9-3.5,4.1c-1.4,1.3-3,2.3-4.7,3.1
			c-1.7,0.8-3.4,1.2-5.1,1.2c-2.2,0-3.8-2-4.5-5.9c-1.1,1.8-2.5,3.3-4.3,4.5c-1.8,1.2-4.2,1.8-7.2,1.8c-3,0-5.4-0.9-7.2-2.8
			c-1.8-1.9-2.7-4.1-2.7-6.8c0-7.2,2.4-12.9,7.2-17.1c2-1.7,3.9-2.9,5.7-3.4c1.8-0.6,3.6-0.8,5.6-0.8c2,0,3.5,0.3,4.8,1
			c0.6-1.2,1.3-1.8,2-1.8c1.5,0,2.9,0.6,4.2,1.9c1.3,1.3,2,2.5,2,3.7c-0.6,1.4-1.5,3.1-2.6,5c-0.3,2-0.5,4.7-0.5,8.2
			s0.4,5.3,1.3,5.3c1.1,0,3.8-2.2,8-6.6C64.8,157.8,65.4,157.4,65.7,157.4z M35.6,161.2c0,3.3,1.2,4.9,3.6,4.9
			c2.6,0,4.7-1.4,6.4-4.1c0.6-0.9,1.1-2.1,1.5-3.4c0-4.8,0.4-8.8,1.3-12.2c-3.4,0.7-6.4,2.3-9,5C36.9,153.9,35.6,157.2,35.6,161.2z"
			/>
		<path class="st1" d="M93.8,153.1c0-1.4-0.8-2.1-2.4-2.1c-1.1,0-2.3,1.1-3.7,3.2c-1.4,2.1-2.3,4.4-2.9,6.9v0.1
			c0,1.4,0.2,2.9,0.7,4.5c0.4,1.5,0.7,2.6,0.7,3.2c0,1.4-1.8,2.9-5.4,4.3c-0.6,0.2-1,0.3-1.5,0.3c-1.1,0-1.8-0.6-2.2-1.7
			c-0.4-1.1-0.6-2.6-0.6-4.5c0-1.9,0.1-3.7,0.2-5.3c0.1-1.7,0.2-3.2,0.3-4.6c0.1-1.4,0.2-2.7,0.3-3.8c0.1-1.1,0.2-2,0.2-2.6
			c0-1.4-0.7-2.2-2-2.2c-1.3,0-2.8,1.5-4.6,4.6c-1.7,3.1-2.6,5.5-2.6,7.3c0,1.8,0.2,3.5,0.7,5c0.4,1.5,0.7,2.6,0.7,3.2
			c0,1.4-1.8,2.9-5.4,4.3c-0.6,0.2-1,0.3-1.5,0.3c-1.1,0-1.8-0.6-2.2-1.7c-0.4-1.1-0.6-2.8-0.6-5.1c0-6,0.2-10.4,0.7-13.1
			c0.6-3.9,2.1-7.7,4.3-11.2c0.8-1.2,1.6-1.8,2.5-1.8c1.4,0,2.7,1.1,3.9,3.4c0.3,0.6,0.6,1.1,0.8,1.7c2-2.5,4.4-3.8,7.2-3.8
			c1.8,0,3.5,0.6,4.9,1.8c1.4,1.2,2.2,2.7,2.2,4.6v0.7c2.6-3.2,5.8-4.8,9.5-4.8c2.3,0,4,0.6,5.2,1.8c1.2,1.2,1.8,2.7,1.8,4.4
			c0,1.7-0.1,3.3-0.4,4.7c-0.3,1.4-0.5,2.7-0.9,3.9c-0.3,1.2-0.6,2.3-0.9,3.3c-0.3,1-0.4,1.7-0.4,2.2c0,0.5,0.2,0.8,0.5,0.8
			c0.6,0,1.4-0.4,2.4-1.2c0.9-0.8,1.9-1.7,2.8-2.6c0.9-1,1.8-1.8,2.6-2.6c0.8-0.8,1.3-1.2,1.6-1.2c0.6,0,0.9,0.7,0.9,2.2
			c0,3-1.5,5.9-4.5,8.7c-3,2.8-6.2,4.2-9.6,4.2c-3.1,0-4.6-2.8-4.6-8.3c0-1.4,0.2-3.3,0.7-5.8C93.5,156,93.8,154.2,93.8,153.1z"/>
		<path class="st1" d="M128.8,167c-3.4,3.9-7.4,5.9-12.1,5.9c-4.7,0-8.2-1.2-10.5-3.6c-2.3-2.4-3.5-5.4-3.4-8.9
			c0-5.1,1.5-9.4,4.8-13.1c3.2-3.7,7.5-5.5,12.7-5.5c2.4,0,4.3,0.3,5.7,0.9c2.5,1,3.8,2,3.8,2.9c0,0.7-1.8,1-5.3,1.1
			c-3.5,0-6.4,1.2-8.8,3.6c-2.4,2.4-3.5,5.4-3.5,9.1c0,1.9,0.6,3.5,1.7,4.8c1.1,1.3,2.7,1.9,4.8,1.9c2.1,0,3.8-0.4,5.1-1.3
			c-3-2-4.5-5-4.5-8.9c0-2,0.7-3.9,2.2-5.6c1.5-1.7,3.4-2.5,5.8-2.5c2.4,0,4,0.6,5.1,1.9c1,1.3,1.5,3,1.5,5.1c0,2.1-0.5,4.2-1.5,6.5
			h0.4c1.9,0,3.5-0.7,4.8-2c0.5-0.5,0.9-1,1.3-1.3c0.4-0.4,0.7-0.6,1.1-0.6c0.6,0,0.9,0.7,0.9,2.1c0,2.6-0.8,4.5-2.3,5.8
			c-1.5,1.3-3.2,1.9-5.1,1.9C131.6,167.4,130.1,167.3,128.8,167z M128.2,159.6c0.7-1.5,1.1-3,1.1-4.5c0-1.4-0.5-2.2-1.4-2.2
			c-0.4,0-0.7,0.3-1,0.8c-0.3,0.6-0.4,1.1-0.4,1.6C126.6,157.1,127.1,158.5,128.2,159.6z"/>
	</g>
	<path class="st2" d="M279.4,166.5c0,3.5-2.9,6.4-6.4,6.4c-3.5,0-6.4-2.9-6.4-6.4c0-3.5,2.9-6.4,6.4-6.4
		C276.5,160.2,279.4,163,279.4,166.5z"/>
	<g>
		<path class="st2" d="M207.3,158.5c0.7,0,1.1,1,1.1,2.9c0,1.1-0.4,2.3-1.3,3.9c-0.9,1.5-2,2.9-3.5,4.1c-1.4,1.3-3,2.3-4.7,3.1
			c-1.7,0.8-3.4,1.2-5,1.2c-1.6,0-2.8-0.3-3.7-0.9c-0.9-0.6-1.6-1.4-2.1-2.4c-0.7-1.4-1.3-4.2-1.8-8.2c-0.5-4.1-0.9-6.9-1.4-8.5
			c-1.1-0.2-2.1-0.6-2.9-1.3c-0.8-0.7-1.2-1.5-1.2-2.4c0-1,0.4-1.6,1.3-2.1c0.9-0.4,1.9-0.6,3-0.6c1.1,0,2.1,0.3,3,0.8
			c1.2-1,2.2-2.1,2.9-3.5c0.7-1.3,1.1-3.1,1.1-5.4c0-2.3-0.8-4.1-2.3-5.4c-1.5-1.4-3.8-2-6.7-2c-2.9,0-5.2,0.2-6.8,0.7
			c-1.6,0.5-2.9,1-4,1.5c-1.1,0.6-2.1,1.1-3,1.5c-0.9,0.5-1.7,0.7-2.4,0.7c-0.8,0-1.1-0.2-1.1-0.7c0-0.5,0.4-1.3,1.2-2.4
			c0.8-1.1,2-2.2,3.6-3.3c3.9-2.8,8.4-4.1,13.4-4.1c5,0,9.1,1,12.3,2.8c3.8,2.2,5.7,5.5,5.7,9.9c0,3.7-0.9,6.7-2.9,9.1
			c-2,2.4-4.4,4.2-7.3,5.2c0.6,1.4,1.2,2.9,1.6,4.5c0.4,1.6,0.8,3.1,1.2,4.5c0.4,1.4,0.8,2.5,1.3,3.4c0.5,0.9,1.1,1.3,1.8,1.3
			c0.7,0,1.6-0.4,2.5-1.2c1-0.8,2-1.7,3-2.7c1-1,1.9-1.9,2.6-2.7C206.4,158.9,207,158.5,207.3,158.5z M179.6,135.6
			c0.6,0,0.8,0.7,0.8,2.2c0,1.4-0.1,2.8-0.3,4.1c-0.4,2.5-0.9,4.8-1.5,6.9c-1.5,5.8-2.3,9.1-2.3,10.1v9.4c0,2.3-0.9,3.9-2.6,4.7
			c-0.8,0.4-1.6,0.7-2.3,1.1c-0.7,0.3-1.6,0.5-2.5,0.5c-1.8,0-2.7-2-2.7-6.1c0-4.1,1-9.3,2.9-15.5c1.9-6.2,3.9-11,6-14.3
			c0.4-0.6,1-1.3,1.8-2C177.8,135.9,178.7,135.6,179.6,135.6z"/>
		<path class="st2" d="M262.2,158.5c0.7,0,1.1,1,1.1,2.9c0,1.1-0.4,2.3-1.3,3.9c-0.9,1.5-2,2.9-3.5,4.1c-1.4,1.3-3,2.3-4.7,3.1
			c-1.7,0.8-3.6,1.2-5.5,1.2c-1.9,0-3.4-0.6-4.5-1.9c-1.1-1.3-1.6-2.7-1.6-4.2c0-1.5,0.3-3.3,0.8-5.3c0.5-2,1.1-4,1.7-6.1
			c1.6-5.6,2.4-9.6,2.5-11.9c0-1-0.1-1.7-0.4-2.3c-0.3-0.5-0.7-0.8-1.5-0.8c-1.3,0-2.6,0.8-4.1,2.3c-1.4,1.5-2.8,3.5-4.1,5.9
			c-2.9,5.4-4.5,10.7-4.6,15.9c0.1,0.6,0.2,1.2,0.3,1.8c0.1,0.6,0.1,1.2,0.1,1.9c0,1.4-0.7,2.6-2,3.7c-1.3,1.1-2.8,1.7-4.5,1.7
			c-1,0-1.7-0.5-2.2-1.4c-0.5-1-0.7-2.1-0.7-3.5c0-1.4,0.3-3.3,1-5.7c0.6-2.4,1.3-5,2.1-7.7c2-7.2,3.1-12.5,3.1-16
			c0-1.8-0.2-3.2-0.7-4.2c-0.4-1-1.3-1.5-2.6-1.5c-2.3,0-4.6,1.6-6.8,4.9c-2.3,3.3-4.3,8.3-6.1,15.2c-0.5,1.8-0.8,3.3-1.1,4.6
			l-0.1,1.2c0.8,3.9,1.2,6.5,1.2,7.6c0,2.5-0.9,4.1-2.6,5c-0.8,0.4-1.6,0.7-2.3,1.1c-0.7,0.3-1.5,0.5-2.4,0.5c-2.1,0-3.2-2-3.2-6.1
			s1.1-12,3.4-23.8c0.8-4.2,1.2-6.6,1.2-7.1c0-3.4-0.9-5.2-2.6-5.2c-0.6,0-1.1,0.2-1.6,0.5c-0.5,0.3-1,0.7-1.5,1.1
			c-0.5,0.4-1,0.7-1.5,1.1c-0.5,0.3-1.1,0.5-1.8,0.5c-0.7,0-1-0.6-1-1.7c0-2.3,1.1-4.2,3.2-5.7c2.1-1.5,4.6-2.3,7.6-2.3
			c3.8,0,6.1,1.8,6.8,5.3c0.2,1.1,0.3,2.2,0.4,3.4c3.1-5.9,7.1-8.9,11.9-8.9c5.2,0,8.2,2.5,9,7.5c0.3,1.4,0.4,3,0.3,4.6v0.5
			c2.8-3.8,6-5.7,9.8-5.7c5.3,0,8,3.2,8,9.7c0,2.8-0.4,6.1-1.3,9.8c-0.9,3.8-1.5,6.5-1.9,8.1c-0.4,1.6-0.6,2.9-0.6,3.8
			c0,1.6,0.6,2.4,1.7,2.4c1.1,0,3.8-2.2,8.1-6.6C261.3,158.9,261.8,158.5,262.2,158.5z"/>
		<g>
			<path class="st2" d="M171.5,150.1c1.1,0,1.6,1,1.6,3.1c0,2-0.5,4.2-1.4,6.6c-0.9,2.3-2.3,4.6-4.2,6.8c-1.9,2.2-4.3,4-7.2,5.6
				c-2.9,1.5-6.4,2.3-10.3,2.3c-4,0-7.4-1.3-10.4-4c-3-2.7-4.5-6.5-4.5-11.5c0-5,0.7-9.5,2.1-13.6c1.4-4.1,3.2-7.6,5.5-10.5
				c2.3-3,4.9-5.2,7.8-6.9c2.9-1.6,5.7-2.5,8.3-2.5c4.6,0,6.9,2,6.9,6.1c0,2.3-0.4,4.2-1.3,5.6c-0.9,1.4-1.7,2.1-2.6,2.1
				c-1.2,0-2.2-0.5-3.1-1.4c-0.9-0.9-1.9-1.4-3-1.5c-1.1,0-4-0.1-6.5,3.9c-1.7,2.8-1.5,2.5-2.1,4.4c-1.3,3.8-2.1,6.6-2.1,11.7
				c0.1,2.4,2.2,6.1,4.1,7.3c1.3,0.8,2.9,1.5,4.6,1.3c3.8-0.5,6-2.3,7.5-4c1.4-1.5,2.7-3,4.1-4.6c1.4-1.6,2.6-3,3.6-4.4
				C170.1,150.7,170.9,150.1,171.5,150.1z"/>
		</g>
	</g>
</g>
</svg>
