<?xml version="1.0" encoding="utf-8"?>
<!-- Generator: Adobe Illustrator 24.0.3, SVG Export Plug-In . SVG Version: 6.00 Build 0)  -->
<svg version="1.1" id="Layer_1" xmlns="http://www.w3.org/2000/svg" xmlns:xlink="http://www.w3.org/1999/xlink" x="0px" y="0px"
	 viewBox="0 0 300 300" style="enable-background:new 0 0 300 300;" xml:space="preserve">
<style type="text/css">
	.st0{fill:#41B14A;}
</style>
<path class="st0" d="M162.5,0.5c4.6,1.4,9.4,1.4,14,2.3c47.2,9.3,82.5,35.1,105.6,77.3c13.1,24,18.3,49.9,17.2,77.1
	c-2.6,68.6-55.1,128.4-122.9,139.9c-38.3,6.5-73.9-0.5-106.9-21c-2.4-1.5-3.6-3.2-4-6.1c-1.3-10-2.2-20-2.7-30.1
	c-0.1-1.6,0.2-2.4,2-2.2c9.9,0.8,19.8,0.1,29.6-0.8c1.6-0.1,2.9,0.2,4.2,1c57.8,33,130,4.4,148.8-59.5
	C264.7,120,227.3,61.8,170,50.3c-8.9-1.8-17.8-2.5-26.8-1.8c-1.1,0.1-2.2,0.1-3.2,0.1c-0.5-0.9,0.1-1.3,0.5-1.7
	c6-7,12.1-13.8,19.1-19.9c1.7-1.5,1.3-2.3-0.2-3.7c-7.6-7.1-15.5-13.9-24-19.9c-0.6-0.5-1.2-1-2-1.6c1.8-1.5,4.1,0,5.7-1.3
	C146.9,0.5,154.7,0.5,162.5,0.5z M44.4,80.9c-9.9,1.9-19.6,4.5-29.1,7.9c-1.4,0.5-1.2,1.3-0.7,2.4c4,9.7,8.7,19,14.1,28
	c0.8,1.3,1.4,1.3,2.5,0.4c6-4.3,12.3-8.2,18.7-11.8c1.1-0.6,1.6-1.1,1.2-2.5c-1.9-7.5-3.5-15.2-4.4-22.9c-0.1-1-0.3-1.8-1.6-1.6
	C44.8,80.9,44.6,80.9,44.4,80.9z M54.3,225.5c0.1-7.2,0.7-14.4,1.8-21.5c0.2-1.4-0.3-1.9-1.5-2.4c-6.8-2.8-13.5-6-19.9-9.6
	c-1.3-0.7-1.9-0.8-2.7,0.8c-4.3,8.8-7.8,17.9-10.8,27.2c-0.5,1.4-0.4,2.1,1.2,2.6c9.6,2.5,19.3,4.3,29.5,5.5
	C53.9,228.7,54.3,227.4,54.3,225.5z M41.1,155.1c-4.7-5.3-9.2-10.8-13.2-16.7c-1-1.5-1.8-1-2.8-0.1c-6.9,5.8-13.4,12-19.5,18.6
	c-1.3,1.4-1.1,2.1,0.3,3.3c6.7,5.7,13.8,10.9,21.1,15.8c1.4,0.9,2.1,1.1,3.1-0.6c3.3-5.9,7-11.6,11-17.1c0.3-0.5,0.6-1,1.1-1.6
	C41.8,156,41.5,155.5,41.1,155.1z M57.4,53.6c0,3.4,0.1,6.8,0,10.2c0,1.7,0.3,2.5,2.3,2.3c6.4-0.7,12.9-1.2,19.4-1.1
	c1.8,0,1.8-1.1,2.1-2.3c1.4-5.9,2.9-11.8,4.8-17.6c0.5-1.5,0.5-2.3-1.3-2.8c-8.1-2.2-16.3-3.8-24.6-5.1c-1.8-0.3-2.6,0.3-2.5,2.1
	c0,4.8,0,9.6,0,14.3C57.5,53.6,57.5,53.6,57.4,53.6z M125.5,41.5c4.3-4.9,8.5-9.8,12.8-14.6c1.1-1.2,0.6-1.8-0.4-2.6
	c-6.1-5-12.4-9.7-19-14c-1.5-1-2.1-0.6-2.9,0.8c-3.9,6.8-7.4,13.9-10.6,21.1c-0.8,1.8-0.3,2.4,1.3,3c5.4,2,10.7,4.3,15.9,6.8
	c0.4,0.2,0.9,0.4,1.3,0.5C124.9,42.5,125.1,41.9,125.5,41.5z M54.4,244.9c-0.1-2.5,0.6-5.5-0.6-7.3c-1.3-1.9-4.6-1-7-1.4
	c-0.2,0-0.4-0.1-0.6-0.1c-7-0.9-13.8-2.3-20.9-3.8c6.1,10.5,22.3,28.3,31,33.8C55.5,258.8,54.7,251.9,54.4,244.9z M13.6,211.2
	c3.2-8.6,6.4-16.4,10.1-24c0.4-0.9,0.2-1.5-0.6-2c-7.3-4.6-14.2-9.7-21.4-15.5C3.8,184.3,7.5,197.7,13.6,211.2z M19.6,128.3
	c1.2-1,0.3-1.7-0.2-2.5c-2.2-3.9-4.5-7.8-6.6-11.7c-1.7-3.2-3.3-6.4-5.2-10.1c-4.4,13.8-6.7,27.3-7.2,42
	C6.9,139.4,13.1,133.6,19.6,128.3z M22,73.1c0.9,0.3,1.7-0.2,2.6-0.4c5.3-1.3,10.6-2.6,16-3.8c4.3-0.9,4.4-0.8,4.2-5.1
	c-0.3-6.5-0.3-13,0-20.1c-5.3,5-9.6,10-13.5,15.3C27.9,63.5,24.3,67.9,22,73.1L22,73.1z M68.6,24.5c7.7,1.5,14.8,3.1,21.7,5.1
	c1.2,0.3,1.4-0.3,1.7-1c2.7-6.6,5.9-13,9.6-20.2C89.6,12.7,79.1,17.7,68.6,24.5z M64.8,205.6c-1.2,6.5-1.3,12.3-1.8,18.2
	c-0.4,5.3-0.3,5.4,4.9,5.4c5.6,0,11.3,0.3,17.7-0.4C77.3,221.9,70.7,214.4,64.8,205.6z M49.2,164.1c-4.3,5.7-7.7,11.3-11,16.9
	c-0.5,0.9-0.4,1.4,0.5,1.9c5.8,3.1,11.6,6.1,18.5,9C53.2,182.7,50.7,173.8,49.2,164.1z M37.2,129.1c-0.6,0.4-1.7,0.7-0.9,1.8
	c3.6,5.1,7.3,10.1,12,15.2c0.5-9.4,2-18,4.7-27.1C47,122.4,42,125.6,37.2,129.1z M78.6,77.4c-6.5,0.1-12.4,0.5-18.2,1.2
	c-1,0.1-1.7,0.3-1.5,1.6c1,5.9,1.7,11.8,3.5,18.2C67,90.4,72.3,83.9,78.6,77.4z M107.2,50.1c-2.4-0.9-5.2-3.3-7.1-2.3
	c-2,1-1.9,4.6-2.6,7c-0.8,3-2,5.9-2.2,9.3c6.6-4.1,13.2-7.3,21-10.2C112.7,52.4,110,51.1,107.2,50.1z M22,73.1c0,0.1,0,0.2-0.1,0.2
	C22,73.3,22,73.2,22,73.1C22,73.2,22,73.1,22,73.1z"/>
</svg>
