<svg width="100" height="100" viewBox="0 0 100 100" fill="none" xmlns="http://www.w3.org/2000/svg">
<rect width="100" height="100" fill="#5261F2"/>
<path d="M57.5031 69.6566L48.358 78.9883C47.4248 79.9214 47.4248 81.0412 48.358 81.9744C48.7313 82.3477 49.2912 82.5343 49.6645 82.5343C50.0377 82.5343 50.7843 82.3477 50.9709 81.9744L60.3026 72.6427C61.2358 71.7096 61.2358 70.5898 60.3026 69.6566C59.556 68.91 58.4362 68.91 57.5031 69.6566V69.6566Z" fill="#F5FAFF"/>
<path d="M28.9481 58.4586C28.9481 58.272 29.3214 57.5254 30.2545 56.0323C31.7476 53.7927 34.1738 50.9932 37.3466 48.0071L38.8397 46.514C39.5862 45.7675 40.5194 45.5808 41.4526 45.9541L41.2659 45.7675C40.706 45.2076 40.706 44.6477 41.2659 44.0878L41.8258 43.5279C42.759 42.5947 42.759 41.4749 41.8258 40.5417C40.8927 39.6086 39.7729 39.6086 38.8397 40.5417L34.3605 45.2076C31.1877 48.567 28.5748 51.7398 26.7085 54.3526C25.4021 56.219 25.2154 57.3388 25.0288 57.712C24.8422 58.8318 25.5887 59.9517 26.5219 60.1383H27.0818C28.0149 59.9517 28.7615 59.5784 28.9481 58.4586V58.4586Z" fill="#F5FAFF"/>
<path d="M71.5006 17.5857L42.5724 46.514C43.6922 47.6338 43.6922 49.1269 42.5724 49.8734L41.8258 50.6199L37.16 55.2858C28.7615 63.6843 27.8283 67.417 27.6417 68.1635C27.455 69.2833 28.2016 70.4031 29.3214 70.5898H29.6946C30.8144 70.5898 31.3743 69.8432 31.7476 69.0967C31.7476 68.91 32.1209 68.1635 33.054 66.4838C34.1738 64.8041 36.2268 62.0046 40.1461 58.0853L41.6392 56.5922C42.3857 55.8457 43.3189 55.659 44.2521 56.0323L44.0654 55.8457C43.5055 55.2858 43.5055 54.7259 44.0654 54.166L44.6253 53.6061C45.5585 52.6729 45.5585 51.5531 44.6253 50.6199L44.2521 50.2467L74.3001 20.3852C75.2333 19.4521 75.2333 18.3323 74.3001 17.3991C73.5536 16.8392 72.2471 16.8392 71.5006 17.5857V17.5857Z" fill="#F5FAFF"/>
<path d="M66.8348 34.9427L45.3719 56.5922C46.4917 57.712 46.4917 59.2051 45.3719 59.9516L44.6253 60.6981L40.1461 65.1773C36.6001 68.7234 33.8006 72.4561 32.3075 75.8155C31.1877 78.4284 31.1877 79.9214 31.1877 80.2947C31.1877 81.4145 32.1209 82.3477 33.2407 82.3477C34.3605 82.3477 35.2936 81.4145 35.2936 80.2947C35.2936 80.2947 35.2936 79.1749 36.2268 77.3085C37.9065 73.7625 40.8927 70.2165 43.3189 67.7902L44.812 66.2972C45.5585 65.5506 46.4917 65.364 47.4248 65.7373L47.2382 65.5506C46.6783 64.9907 46.6783 64.4308 47.2382 63.8709L47.7981 63.311C48.7313 62.3778 48.7313 61.258 47.7981 60.3249L47.4248 59.9516L70.0075 37.5555C70.9407 36.6224 70.9407 35.5026 70.0075 34.5694C68.8877 34.1961 67.7679 34.1961 66.8348 34.9427V34.9427Z" fill="#F5FAFF"/>
<path d="M62.1689 52.4863L47.9848 66.6704C49.1046 67.7902 49.1046 69.2833 47.9848 70.0298L45.9318 72.0828C46.8649 72.6427 47.7981 72.6427 48.5447 71.7095L64.9684 55.2858C65.9016 54.3526 65.9016 53.2328 64.9684 52.2996C64.2219 51.5531 63.1021 51.5531 62.1689 52.4863V52.4863Z" fill="#F5FAFF"/>
</svg>
