<?xml version="1.0" encoding="utf-8"?>
<!-- Generator: Adobe Illustrator 24.0.3, SVG Export Plug-In . SVG Version: 6.00 Build 0)  -->
<svg version="1.1" id="Layer_1" xmlns="http://www.w3.org/2000/svg" xmlns:xlink="http://www.w3.org/1999/xlink" x="0px" y="0px"
	 viewBox="0 0 300 300" style="enable-background:new 0 0 300 300;" xml:space="preserve">
<style type="text/css">
	.st0{fill:#1F2E5C;}
	.st1{fill:#E02179;}
	.st2{fill:#42BB9C;}
</style>
<g>
	<g id="Group_1_" transform="translate(0.155756, 0.822857)">
		<polygon id="Shape_6_" class="st0" points="0.5,238.4 37.9,238.4 37.9,215.1 85.5,215.1 85.5,238.4 122.9,238.4 122.9,59.8 
			0.5,59.8 		"/>
		<path id="Shape_7_" class="st0" d="M188.3,10c-5.6,0-10.2,4.6-10.2,10.1s4.6,10.1,10.2,10.1c5.6,0,10.2-4.6,10.2-10.1
			S193.9,10,188.3,10z"/>
		<path id="Shape_8_" class="st0" d="M188.3,56.8c-5.6,0-10.2,4.6-10.2,10.1c0,5.6,4.6,10.1,10.2,10.1c5.6,0,10.2-4.6,10.2-10.1
			C198.5,61.4,193.9,56.8,188.3,56.8z"/>
		<path id="Shape_9_" class="st0" d="M188.3,103.6c-5.6,0-10.2,4.6-10.2,10.1s4.6,10.1,10.2,10.1c5.6,0,10.2-4.6,10.2-10.1
			S193.9,103.6,188.3,103.6z"/>
		<path id="Shape_10_" class="st0" d="M236.4,10c-5.6,0-10.2,4.6-10.2,10.1s4.6,10.1,10.2,10.1c5.6,0,10.2-4.6,10.2-10.1
			S242.1,10,236.4,10z"/>
		<path id="Shape_11_" class="st0" d="M236.4,56.8c-5.6,0-10.2,4.6-10.2,10.1c0,5.6,4.6,10.1,10.2,10.1c5.6,0,10.2-4.6,10.2-10.1
			C246.7,61.4,242.1,56.8,236.4,56.8z"/>
		<path id="Shape_12_" class="st0" d="M236.4,103.6c-5.6,0-10.2,4.6-10.2,10.1s4.6,10.1,10.2,10.1c5.6,0,10.2-4.6,10.2-10.1
			S242.1,103.6,236.4,103.6z"/>
		<path id="Shape_13_" class="st0" d="M283.7,10c-5.6,0-10.2,4.6-10.2,10.1s4.6,10.1,10.2,10.1c5.6,0,10.2-4.6,10.2-10.1
			C294,14.6,289.4,10,283.7,10z"/>
		<path id="Shape_14_" class="st0" d="M283.7,56.8c-5.6,0-10.2,4.6-10.2,10.1c0,5.6,4.6,10.1,10.2,10.1c5.6,0,10.2-4.6,10.2-10.1
			C294,61.4,289.4,56.8,283.7,56.8z"/>
		<path id="Shape_15_" class="st0" d="M283.7,103.6c-5.6,0-10.2,4.6-10.2,10.1s4.6,10.1,10.2,10.1c5.6,0,10.2-4.6,10.2-10.1
			S289.4,103.6,283.7,103.6z"/>
	</g>
	<path id="Shape_16_" class="st1" d="M63.2,177.1c-33.8-0.8-61.9,25.8-62.7,59.3c-0.8,33.5,26,61.3,59.8,62.1
		c33.8,0.8,61.9-25.8,62.7-59.3C123.9,205.7,97.1,177.8,63.2,177.1z M82.3,259.5h-41v-40.6h41V259.5z"/>
	<g id="Group_2_">
		
			<ellipse id="Oval" transform="matrix(2.338881e-02 -0.9997 0.9997 2.338881e-02 -2.4586 123.1124)" class="st2" cx="61.8" cy="62.8" rx="61.3" ry="60.7"/>
		<path id="Shape_17_" class="st2" d="M173.2,165.5v125.1h126.3V165.5H173.2z M273.8,256.3h-74.9v-15.5h74.9V256.3z M273.8,215.3
			h-74.9v-15.5h74.9V215.3z"/>
	</g>
</g>
</svg>
