<?xml version="1.0" encoding="utf-8"?>
<!-- Generator: Adobe Illustrator 24.0.3, SVG Export Plug-In . SVG Version: 6.00 Build 0)  -->
<svg version="1.1" id="Layer_1" xmlns="http://www.w3.org/2000/svg" xmlns:xlink="http://www.w3.org/1999/xlink" x="0px" y="0px"
	 viewBox="0 0 300 300" style="enable-background:new 0 0 300 300;" xml:space="preserve">
<style type="text/css">
	.st0{fill:#2F577E;}
	.st1{fill:#F4B563;}
	.st2{fill:#5CAFCD;}
	.st3{fill:#47B178;}
</style>
<g>
	<path class="st0" d="M299.5,156.2v-12.5c0-10.6-4.5-20.7-12.5-29.9c-4.3-5-9.7-9.7-16-14c-3.6-2.4-7.4-4.8-11.5-7
		c-3-1.6-6.2-3.2-9.5-4.7c-8.6-3.9-18-7.2-28.2-10c1.2,4.3,2.3,8.8,3.2,13.4c1,4.5,1.8,9.1,2.5,13.8c5.5,1.8,10.8,3.8,15.8,6
		c2.3,1,4.6,2.1,6.8,3.2c1.2,0.6,2.3,1.2,3.5,1.8c3.9,2.1,7.5,4.3,10.8,6.6c11.9,8.3,19.5,17.7,21.8,27.1
		c-2.3,9.4-9.9,18.8-21.8,27.1c1.3,3.4,2.4,6.7,3.4,10c1.3,4.5,2.4,8.8,3.2,13.1c6.3-4.3,11.7-9,16-14
		C295,177,299.5,166.9,299.5,156.2"/>
	<path class="st0" d="M117.2,229.2c-5.1-4.1-10.2-8.4-15.2-13c1,3.9,2.1,7.7,3.4,11.4C109.2,228.2,113.2,228.7,117.2,229.2"/>
	<path class="st0" d="M144.1,218.5c2,1.4,4,2.8,5.9,4.2c3.8,2.6,7.6,5,11.4,7.2c0.5,0.3,1,0.6,1.4,0.8c6.8-0.3,13.5-0.8,20-1.5
		c4-0.4,8-1,11.8-1.6c4.7-0.7,9.3-1.6,13.8-2.5c4.6-1,9-2.1,13.4-3.2c10.2-2.8,19.7-6.2,28.2-10c-0.7-3.9-1.7-8.1-3-12.3
		c-0.4-1.2-0.8-2.5-1.2-3.7c-0.8-2.3-1.6-4.7-2.6-7.1c-5,2.2-10.3,4.2-15.8,6c-3.7,1.2-7.5,2.3-11.4,3.4c-0.5,0.1-1.1,0.3-1.6,0.4
		c-4.3,1.1-8.7,2.1-13.2,2.9c-2.4,0.5-4.7,0.9-7.1,1.3c-6.9,1.1-14.1,2-21.4,2.6c-7.5,0.6-15.1,0.9-22.8,0.9
		c-7.7,0-15.4-0.3-22.8-0.9C132.7,209.9,138.4,214.4,144.1,218.5"/>
	<path class="st0" d="M52.9,100.6c0.4,1.2,0.8,2.5,1.2,3.7c0.8,2.3,1.6,4.7,2.6,7.1c5-2.2,10.3-4.2,15.7-6c3.7-1.2,7.5-2.3,11.5-3.4
		c0.5-0.1,1.1-0.3,1.6-0.4c4.3-1.1,8.7-2.1,13.2-2.9c2.4-0.5,4.7-0.9,7.1-1.3c6.9-1.1,14.1-2,21.4-2.6c7.5-0.6,15.1-0.9,22.8-0.9
		c7.7,0,15.4,0.3,22.8,0.9c-5.6-4.7-11.2-9.2-16.9-13.3c-2-1.4-4-2.8-5.9-4.2c-3.8-2.6-7.6-5-11.4-7.2c-0.5-0.3-1-0.6-1.4-0.8
		c-6.8,0.3-13.5,0.8-20,1.5c-4,0.4-8,1-11.8,1.6c-4.7,0.7-9.3,1.6-13.8,2.5c-4.6,1-9,2.1-13.4,3.2C68,81,58.5,84.4,50,88.3
		C50.7,92.2,51.6,96.3,52.9,100.6"/>
	<path class="st0" d="M182.8,70.9c5.1,4.1,10.2,8.4,15.2,13c-1-3.9-2.1-7.7-3.4-11.5C190.8,71.8,186.8,71.3,182.8,70.9"/>
	<path class="st0" d="M13.8,150c2.3-9.4,9.9-18.8,21.8-27.1c-1.3-3.4-2.4-6.7-3.4-10c-1.3-4.5-2.4-8.8-3.2-13.1
		c-6.3,4.3-11.7,9-16,14C5,123,0.5,133.1,0.5,143.8v12.5C0.5,166.9,5,177,13,186.1c4.3,5,9.7,9.7,16,14c3.6,2.4,7.4,4.8,11.5,7
		c3,1.6,6.2,3.2,9.5,4.7c8.6,3.9,18,7.2,28.2,10c-1.2-4.3-2.3-8.8-3.2-13.4c-0.9-4.5-1.8-9.1-2.5-13.8c-5.5-1.8-10.7-3.8-15.7-6
		c-2.3-1-4.6-2.1-6.8-3.2c-1.2-0.6-2.3-1.2-3.5-1.8c-3.9-2.1-7.5-4.3-10.8-6.6C23.7,168.8,16.1,159.4,13.8,150"/>
	<g>
		<path class="st1" d="M182.8,229.1c-6.5,0.7-13.2,1.2-20,1.5c3.5,2,7,4,10.5,5.7C176.5,234.1,179.6,231.7,182.8,229.1"/>
		<path class="st1" d="M260.1,48.7l-8.8-8.8c-7.5-7.5-17.8-11.5-30-12.3c-6.6-0.4-13.7,0.1-21.2,1.5c-4.2,0.8-8.6,1.8-13.1,3.2
			c-3.3,1-6.6,2.1-10,3.4c-8.8,3.3-17.9,7.6-27.1,12.9c3.9,2.2,7.8,4.6,11.8,7.2c3.8,2.5,7.7,5.2,11.5,8c5.2-2.6,10.3-4.9,15.4-6.9
			c2.4-0.9,4.7-1.8,7.1-2.6c1.3-0.4,2.5-0.8,3.7-1.2c4.3-1.3,8.4-2.3,12.3-3c14.3-2.5,26.3-1.3,34.6,3.7"/>
		<path class="st1" d="M246.3,53.7c5,8.3,6.3,20.3,3.7,34.6c3.3,1.5,6.4,3,9.5,4.7c4.1,2.2,7.9,4.5,11.5,7
			c1.4-7.5,1.9-14.6,1.4-21.2c-0.8-12.1-4.8-22.4-12.3-30c-1.5-1.5-3.1-2.8-4.8-4"/>
		<path class="st1" d="M194.2,202.6c2.4-0.4,4.8-0.8,7.1-1.3c4.5-0.9,8.9-1.8,13.2-2.9c0.5-0.1,1.1-0.3,1.6-0.4
			c4.6-5,8.9-10.1,13-15.2c2.5-3.2,4.9-6.3,7.3-9.5c2.8-3.8,5.5-7.7,8-11.5c2.5-3.9,4.9-7.8,7.2-11.8c5.2-9.2,9.5-18.3,12.9-27.1
			c-3.3-2.3-6.9-4.5-10.8-6.6c-1.1-0.6-2.3-1.2-3.5-1.8c-2.2-1.1-4.5-2.2-6.8-3.2c-2,5.1-4.3,10.2-6.9,15.4c-1.8,3.5-3.7,7-5.7,10.5
			c-0.3,0.5-0.6,1-0.8,1.4c-2.3,3.8-4.7,7.6-7.2,11.4c-1.4,2-2.7,4-4.2,5.9c-4.1,5.7-8.6,11.3-13.3,16.9
			c-4.9,5.7-10.1,11.3-15.5,16.8c-5.5,5.5-11.1,10.7-16.8,15.5C180.1,204.6,187.3,203.8,194.2,202.6"/>
		<path class="st1" d="M117.2,70.8c6.5-0.7,13.2-1.2,20-1.5c-3.5-2-7-4-10.5-5.7C123.5,65.9,120.4,68.3,117.2,70.8"/>
		<path class="st1" d="M53.7,246.4c-5-8.3-6.3-20.3-3.7-34.6c-3.3-1.5-6.4-3-9.5-4.7c-4.1-2.2-8-4.5-11.5-7
			c-1.4,7.5-1.9,14.6-1.5,21.2c0.8,12.1,4.8,22.4,12.3,30l8.8,8.8c7.5,7.5,17.8,11.5,30,12.3c6.6,0.4,13.7-0.1,21.2-1.5
			c4.2-0.8,8.6-1.8,13.1-3.2c3.3-1,6.6-2.1,10-3.4c8.8-3.3,17.9-7.6,27.1-12.9c-3.9-2.2-7.8-4.6-11.8-7.2c-3.8-2.5-7.7-5.2-11.5-8
			c-5.2,2.6-10.3,4.9-15.4,6.9c-2.4,0.9-4.7,1.8-7.1,2.6c-1.3,0.4-2.5,0.8-3.7,1.2c-4.3,1.3-8.4,2.3-12.3,3
			C73.9,252.6,62,251.3,53.7,246.4"/>
		<path class="st1" d="M46.4,183.7c1.1,0.6,2.3,1.2,3.5,1.8c2.2,1.1,4.5,2.2,6.8,3.2c2-5.1,4.3-10.2,6.9-15.4
			c1.8-3.5,3.7-7,5.7-10.5c0.3-0.5,0.6-1,0.8-1.4c2.3-3.8,4.7-7.6,7.2-11.4c1.3-2,2.7-4,4.2-5.9c4.1-5.7,8.5-11.3,13.3-16.9
			c4.9-5.7,10-11.3,15.5-16.8c5.5-5.5,11.1-10.7,16.8-15.5c-7.3,0.6-14.4,1.4-21.4,2.6c-2.4,0.4-4.8,0.8-7.1,1.3
			c-4.5,0.9-8.9,1.8-13.2,2.9c-0.5,0.1-1.1,0.3-1.6,0.4c-4.6,5-8.9,10.1-13,15.2c-2.5,3.2-4.9,6.3-7.3,9.5c-2.8,3.8-5.5,7.7-8,11.5
			c-2.5,3.9-4.9,7.8-7.2,11.8c-5.2,9.2-9.5,18.3-12.9,27.1C38.9,179.4,42.5,181.6,46.4,183.7"/>
	</g>
	<path class="st2" d="M70.8,182.8c-0.7-6.5-1.2-13.2-1.5-20c-2,3.5-4,7-5.7,10.5C65.9,176.5,68.3,179.6,70.8,182.8"/>
	<path class="st2" d="M53.7,53.7c8.3-5,20.3-6.3,34.6-3.7c1.5-3.3,3-6.4,4.7-9.5c2.2-4.1,4.5-7.9,7-11.5c-7.5-1.4-14.6-1.9-21.2-1.5
		c-12.1,0.8-22.4,4.8-30,12.3c-1.5,1.5-2.8,3.1-4,4.8c1.2-1.7,2.6-3.3,4-4.8l-8.8,8.8c-7.5,7.5-11.5,17.8-12.3,30
		c-0.4,6.6,0.1,13.7,1.5,21.2c0.8,4.2,1.8,8.6,3.2,13.1c1,3.3,2.1,6.6,3.4,10c3.3,8.8,7.6,17.9,12.9,27.1c2.2-3.9,4.6-7.8,7.2-11.8
		c2.5-3.8,5.2-7.7,8-11.5c-2.6-5.2-4.9-10.3-6.9-15.4c-0.9-2.4-1.8-4.7-2.6-7.1c-0.4-1.2-0.8-2.5-1.2-3.7c-1.3-4.3-2.3-8.4-3-12.3
		C47.4,74,48.7,62,53.7,53.7"/>
	<path class="st2" d="M229.2,117.2c0.7,6.5,1.2,13.2,1.5,20c2-3.5,4-7,5.7-10.5C234.1,123.5,231.7,120.4,229.2,117.2"/>
	<path class="st2" d="M202.6,105.8c-0.4-2.4-0.8-4.8-1.3-7.1c-0.9-4.5-1.8-8.9-2.9-13.2c-0.1-0.5-0.3-1.1-0.4-1.6
		c-5-4.6-10.1-8.9-15.2-13c-3.2-2.5-6.3-4.9-9.5-7.3c-3.8-2.8-7.7-5.5-11.5-8c-3.9-2.6-7.9-4.9-11.8-7.2
		c-9.2-5.2-18.3-9.5-27.1-12.9c-2.3,3.3-4.5,6.9-6.6,10.8c-0.6,1.1-1.2,2.3-1.8,3.5c-1.1,2.2-2.2,4.5-3.2,6.8
		c5.1,2,10.2,4.3,15.4,6.9c3.5,1.8,7,3.7,10.5,5.7c0.5,0.3,1,0.6,1.4,0.8c3.8,2.3,7.6,4.7,11.4,7.2c2,1.3,4,2.7,5.9,4.2
		c5.7,4.1,11.3,8.6,16.9,13.3c5.7,4.9,11.3,10,16.8,15.5c5.5,5.5,10.7,11.1,15.5,16.8C204.6,119.9,203.7,112.7,202.6,105.8"/>
	<path class="st2" d="M97.4,194.2c0.4,2.4,0.8,4.8,1.3,7.1c0.9,4.5,1.8,8.9,2.9,13.2c0.1,0.5,0.3,1.1,0.4,1.6
		c5,4.6,10.1,8.9,15.2,13c3.2,2.5,6.3,4.9,9.5,7.3c3.8,2.8,7.7,5.5,11.5,8c3.9,2.5,7.9,4.9,11.8,7.2c9.2,5.2,18.3,9.5,27.1,12.9
		c2.3-3.3,4.5-6.9,6.6-10.8c0.6-1.1,1.2-2.3,1.8-3.5c1.1-2.2,2.2-4.5,3.2-6.8c-5.1-2-10.2-4.3-15.4-6.9c-3.5-1.8-7-3.7-10.5-5.7
		c-0.5-0.3-1-0.6-1.4-0.8c-3.8-2.3-7.6-4.7-11.4-7.2c-2-1.3-4-2.7-5.9-4.2c-5.7-4.1-11.3-8.5-16.9-13.3c-5.7-4.9-11.3-10-16.8-15.5
		c-5.5-5.5-10.7-11.1-15.5-16.8C95.4,180.1,96.3,187.3,97.4,194.2"/>
	<path class="st2" d="M251.3,260.1l8.8-8.8c7.5-7.5,11.5-17.8,12.3-30c0.4-6.6-0.1-13.7-1.4-21.2c-0.8-4.2-1.9-8.6-3.2-13.1
		c-1-3.3-2.1-6.6-3.4-10c-3.3-8.8-7.6-17.9-12.9-27.1c-2.2,3.9-4.6,7.8-7.2,11.8c-2.5,3.8-5.2,7.7-8,11.5c2.6,5.2,4.9,10.3,6.9,15.4
		c0.9,2.4,1.8,4.7,2.6,7.1c0.4,1.3,0.8,2.5,1.2,3.7c1.3,4.3,2.3,8.4,3,12.3c2.5,14.3,1.3,26.3-3.7,34.6c-8.3,5-20.3,6.3-34.6,3.7
		c-1.5,3.3-3,6.4-4.7,9.5c-2.2,4.1-4.5,7.9-7,11.5c7.5,1.4,14.6,1.9,21.2,1.5C233.5,271.6,243.8,267.6,251.3,260.1"/>
	<path class="st3" d="M81.5,144.1c-1.4,2-2.8,4-4.2,5.9c-2.6,3.8-5,7.6-7.2,11.4c-0.3,0.5-0.6,1-0.8,1.4c0.3,6.8,0.8,13.5,1.5,20
		c0.5,4,1,8,1.6,11.8c0.7,4.7,1.6,9.3,2.5,13.8c1,4.6,2.1,9,3.2,13.4c2.8,10.2,6.2,19.7,10,28.2c3.9-0.7,8.1-1.7,12.3-3
		c1.2-0.4,2.5-0.8,3.7-1.2c2.3-0.8,4.7-1.6,7.1-2.6c-2.2-5-4.2-10.3-6-15.8c-1.2-3.7-2.3-7.5-3.4-11.4c-0.1-0.5-0.3-1.1-0.4-1.6
		c-1.1-4.3-2.1-8.7-2.9-13.2c-0.5-2.4-0.9-4.7-1.3-7.1c-1.1-6.9-2-14.1-2.6-21.4c-0.6-7.5-0.9-15.1-0.9-22.8
		c0-7.7,0.3-15.4,0.9-22.8C90.1,132.7,85.7,138.4,81.5,144.1"/>
	<path class="st3" d="M229.2,182.8c-4.1,5.1-8.4,10.2-13,15.2c3.9-1,7.7-2.1,11.4-3.4C228.2,190.8,228.7,186.8,229.2,182.8"/>
	<path class="st3" d="M70.8,117.2c4.1-5.1,8.4-10.2,13-15.2c-3.9,1-7.7,2.1-11.5,3.4C71.8,109.3,71.3,113.2,70.8,117.2"/>
	<path class="st3" d="M218.5,156c1.4-2,2.8-4,4.2-5.9c2.6-3.8,5-7.6,7.2-11.4c0.3-0.5,0.6-1,0.8-1.4c-0.3-6.8-0.8-13.5-1.5-20
		c-0.4-4-1-8-1.6-11.8c-0.7-4.7-1.6-9.3-2.5-13.8c-1-4.6-2.1-9-3.2-13.4c-2.8-10.2-6.2-19.7-10-28.2c-3.9,0.7-8.1,1.7-12.3,3
		c-1.2,0.4-2.5,0.8-3.7,1.2c-2.3,0.8-4.7,1.6-7.1,2.6c2.2,5,4.2,10.3,6,15.7c1.2,3.7,2.3,7.5,3.4,11.5c0.1,0.5,0.3,1.1,0.4,1.6
		c1.1,4.3,2.1,8.7,2.9,13.2c0.5,2.4,0.9,4.7,1.3,7.1c1.1,6.9,2,14.1,2.6,21.4c0.6,7.5,0.9,15.1,0.9,22.8c0,7.7-0.3,15.4-0.9,22.8
		C209.9,167.3,214.3,161.7,218.5,156"/>
	<path class="st3" d="M200.1,29c-4.3-6.3-9-11.7-14-16C177,5,166.9,0.5,156.2,0.5h-12.5C133.1,0.5,123,5,113.9,13
		c-5,4.3-9.7,9.7-14,16c-2.4,3.6-4.8,7.4-7,11.5c-1.6,3-3.2,6.2-4.7,9.5c-3.9,8.6-7.2,18-10,28.2c4.3-1.2,8.8-2.3,13.4-3.2
		c4.5-1,9.1-1.8,13.8-2.5c1.8-5.5,3.8-10.8,6-15.7c1-2.3,2.1-4.6,3.2-6.8c0.6-1.2,1.2-2.3,1.8-3.5c2.1-3.9,4.3-7.5,6.6-10.8
		c8.3-11.9,17.7-19.5,27.1-21.8c9.4,2.3,18.8,9.9,27.1,21.8c3.4-1.3,6.7-2.4,10-3.4"/>
	<path class="st3" d="M143.8,299.5h12.5c10.6,0,20.7-4.5,29.9-12.5c5-4.3,9.7-9.7,14-16c2.4-3.6,4.8-7.4,7-11.5
		c1.6-3,3.2-6.2,4.7-9.5c3.9-8.6,7.2-18,10-28.2l-13.4,3.2c-4.5,1-9.1,1.8-13.8,2.5c-1.8,5.5-3.8,10.8-6,15.8
		c-1,2.3-2.1,4.6-3.2,6.8c-0.6,1.2-1.2,2.3-1.8,3.5c-2.1,3.9-4.3,7.5-6.6,10.8c-8.3,11.9-17.7,19.5-27.1,21.8
		c-9.4-2.3-18.8-9.9-27.1-21.8c-3.4,1.3-6.7,2.4-10,3.4L99.9,271c4.3,6.3,9,11.7,14,16C123,295,133.1,299.5,143.8,299.5"/>
</g>
</svg>
