<svg id="Layer_1" data-name="Layer 1" xmlns="http://www.w3.org/2000/svg" viewBox="0 0 300 300"><defs><style>.cls-1{fill:#b2292e;}.cls-2{fill:#2d2a26;}</style></defs><title>-icon-color</title><path class="cls-1" d="M208.64,165.51v-2.18H215V133.05h-6.38v-2.18c5.16.17,10.5-.17,15.83-.35v32.81h6.47v2.18Zm10.41-45.84c-2.71,0-4.73-2.71-4.73-5.25a5.08,5.08,0,0,1,4.73-4.72c2.53,0,5.16,2.1,5.16,4.72a5.08,5.08,0,0,1-5.16,5.25"/><path class="cls-2" d="M.5,148.28v-.1a17.8,17.8,0,0,1,18.27-18c7.08,0,11.64,3,14.71,7.22L26.25,143c-2-2.48-4.26-4.06-7.58-4.06-4.85,0-8.26,4.11-8.26,9.16v.1c0,5.2,3.41,9.26,8.26,9.26,3.62,0,5.75-1.68,7.83-4.21l7.22,5.15c-3.26,4.51-7.67,7.83-15.35,7.83A17.6,17.6,0,0,1,.5,148.28"/><path class="cls-2" d="M34.17,148.28v-.1c0-10,8-18,18.72-18s18.62,8,18.62,17.92v.1c0,9.95-8,18-18.72,18s-18.62-8-18.62-17.93m27.53,0v-.1c0-5-3.61-9.36-8.91-9.36S44,143.08,44,148.08v.1c0,5,3.61,9.36,8.86,9.36s8.81-4.26,8.81-9.26"/><path class="cls-2" d="M72.16,160.36,77.51,154a17.8,17.8,0,0,0,11.24,4.16c2.57,0,4-.89,4-2.38v-.09c0-1.44-1.14-2.24-5.85-3.32-7.37-1.69-13.07-3.76-13.07-10.9v-.09c0-6.44,5.1-11.1,13.42-11.1,5.89,0,10.5,1.59,14.26,4.61l-4.8,6.78A17.45,17.45,0,0,0,87,138.23c-2.33,0-3.47,1-3.47,2.23v.09c0,1.58,1.19,2.28,6,3.37,8,1.74,12.92,4.31,12.92,10.79v.11c0,7.08-5.59,11.28-14,11.28a24.22,24.22,0,0,1-16.24-5.74"/><polygon class="cls-2" points="106.08 130.85 133.96 130.85 133.96 139.01 115.58 139.01 115.58 144.27 132.22 144.27 132.22 151.85 115.58 151.85 115.58 157.34 134.2 157.34 134.2 165.51 106.08 165.51 106.08 130.85"/><polygon class="cls-2" points="139.1 130.85 148.06 130.85 162.33 149.17 162.33 130.85 171.84 130.85 171.84 165.51 163.42 165.51 148.61 146.5 148.61 165.51 139.1 165.51 139.1 130.85"/><polygon class="cls-2" points="186.44 139.26 176.04 139.26 176.04 130.85 206.45 130.85 206.45 139.26 196.05 139.26 196.05 165.51 186.44 165.51 186.44 139.26"/><path class="cls-2" d="M247,130.6h9.26L271,165.51h-10.3l-2.53-6.19H244.78l-2.47,6.19h-10.1Zm8.42,21.24L251.51,142l-3.91,9.85Z"/><polygon class="cls-2" points="273.11 130.85 282.72 130.85 282.72 157.09 299.5 157.09 299.5 165.51 273.11 165.51 273.11 130.85"/></svg>