<svg id="Layer_1" data-name="Layer 1" xmlns="http://www.w3.org/2000/svg" viewBox="0 0 300 300"><defs><style>.cls-1{fill:#2a7cb9;}</style></defs><title>-icon-color</title><path class="cls-1" d="M244,.5m-37,0M299.5,38.61V261.39a38.11,38.11,0,0,1-38.11,38.11H38.61A38.11,38.11,0,0,1,.5,261.39V38.61A38.11,38.11,0,0,1,38.61.5H207c0,43.29,0,114.28,0,147.59a62.86,62.86,0,0,1-2,16.29c-3.63,13.79-10.26,25.66-22.16,34-8.68,6.11-18.53,8.83-29,9.46-18.82,1.14-35.34-3.79-47.07-19.44-9.74-13-14.11-27.72-12-44.11a56.05,56.05,0,0,1,40.31-47c7.73-2.21,15.6-2.15,23.5-2a19.56,19.56,0,1,0,.07-39.11c-12.86.21-25.73.19-38.6,0a17.88,17.88,0,0,0-14.76,7c-.43.52-.85,1.06-1.32,1.54l-39,39a12.13,12.13,0,0,1-1,.89c-5.2,4-7.58,9.31-7.56,15.85q.08,30.38,0,60.75a20.09,20.09,0,0,0,6.15,15Q84.46,218,106.16,240A18.33,18.33,0,0,0,120,245.57q29.92-.31,59.84,0a18.59,18.59,0,0,0,15.66-7.47,13.93,13.93,0,0,1,1.14-1.4c13.47-13.35,26.87-26.78,40.49-40,4.56-4.43,6.89-9.41,6.87-15.77-.08-24.54,0-49.08,0-73.62,0-20.4,0-74.17,0-106.83h17.43A38.11,38.11,0,0,1,299.5,38.61ZM178.47,151a28.25,28.25,0,1,0-28.41,28.1A28.12,28.12,0,0,0,178.47,151Z"/></svg>