<?xml version="1.0" encoding="utf-8"?>
<!-- Generator: Adobe Illustrator 24.0.3, SVG Export Plug-In . SVG Version: 6.00 Build 0)  -->
<svg version="1.1" id="Layer_1" xmlns="http://www.w3.org/2000/svg" xmlns:xlink="http://www.w3.org/1999/xlink" x="0px" y="0px"
	 viewBox="0 0 300 300" style="enable-background:new 0 0 300 300;" xml:space="preserve">
<style type="text/css">
	.st0{fill:#FFA800;}
	.st1{fill:#FFFFFF;}
</style>
<g>
	<path class="st0" d="M149.6,0.5h112.2c20.9,0,37.8,16.5,37.8,37.8v112.2c0,82.4-66.7,149.1-149.1,149.1h-0.8
		c-82.4,0-149.1-66.7-149.1-149.1C-0.3,68,66.4,1.3,148.8,0.5L149.6,0.5L149.6,0.5z"/>
	<path class="st1" d="M151.5,75.2c16.5,0,29.8,13.2,29.8,29.8s-13.2,29.8-29.8,29.8s-29.8-13.2-29.8-29.8
		C121.5,88.4,135,75.2,151.5,75.2"/>
	<polygon class="st1" points="85.7,144.4 137.5,196.2 137.5,225.1 162.8,225.1 162.8,196.2 214.6,144.4 	"/>
</g>
</svg>
