<?xml version="1.0" encoding="utf-8"?>
<!-- Generator: Adobe Illustrator 24.0.3, SVG Export Plug-In . SVG Version: 6.00 Build 0)  -->
<svg version="1.1" id="Layer_1" xmlns="http://www.w3.org/2000/svg" xmlns:xlink="http://www.w3.org/1999/xlink" x="0px" y="0px"
	 viewBox="0 0 300 300" style="enable-background:new 0 0 300 300;" xml:space="preserve">
<style type="text/css">
	.st0{fill:#9B65C3;}
	.st1{fill:#BE63C5;}
	.st2{fill:#BF63C6;}
	.st3{fill:#3278B1;}
	.st4{fill:#3278B2;}
	.st5{fill:#45A4EC;}
	.st6{fill:#19BB7D;}
	.st7{fill:#08C7FB;}
	.st8{fill:#59F2F6;}
	.st9{fill:#DA3757;}
	.st10{fill:#D33C4E;}
	.st11{fill:#EE5A24;}
	.st12{fill:#8BDF55;}
	.st13{fill:#25C16F;}
	.st14{fill:#FFBB00;}
	.st15{fill:#FFA800;}
</style>
<g>
	<path class="st0" d="M2.3,172.4c4.4,31.6,19.3,60.5,42.1,83.3l50.9-50.9c0-53.5,28.1-102.6,74.5-129.8L2.3,172.4z"/>
	<path class="st0" d="M95.2,204.8c-26.3,0-51.7-7-74.5-20.2c-6.1-3.5-12.3-7.9-18.4-12.3c4.4,31.6,19.3,60.5,42.1,83.3
		C44.3,255.7,95.2,204.8,95.2,204.8z"/>
	<path class="st1" d="M95.2,204.8l-50.9,50.9c22.8,22.8,51.7,37.7,83.3,42.1l96.5-167.5C197.8,175.9,148.7,204.8,95.2,204.8z"/>
	<path class="st2" d="M115.4,279.3c-13.2-22.8-20.2-48.2-20.2-74.5l-50.9,50.9c22.8,22.8,51.7,37.7,83.3,42.1
		C123.3,291.6,118.9,285.5,115.4,279.3z"/>
	<path class="st3" d="M285.5,8.4L169.7,75c-46.5,26.3-102.6,26.3-149.1,0C7.5,97.8,0.5,124.1,0.5,150.4c0,7,0.9,14.9,1.8,21.9
		c6.1,4.4,12.3,8.8,18.4,12.3c22.8,13.2,48.2,20.2,74.5,20.2L288.1,11.9C287.2,11,286.3,10.1,285.5,8.4z"/>
	<path class="st4" d="M20.7,184.6c22.8,13.2,48.2,20.2,74.5,20.2c0-53.5,28.1-102.6,74.5-129.8L2.3,171.5
		C8.4,176.7,14.5,181.1,20.7,184.6z"/>
	<path class="st5" d="M20.7,75C7.5,97.8,0.5,124.1,0.5,150.4c0,7,0.9,14.9,1.8,21.9L169.7,75C124.1,102.2,67.1,102.2,20.7,75z"/>
	<path class="st6" d="M288.1,11.9c-2.6-2.6-4.4-4.4-7-6.1c-5.3-3.5-12.3-5.3-18.4-5.3H149.6C96.1,0.5,47,29.4,20.7,75
		c46.5,26.3,102.6,26.3,149.1,0c-46.5,26.3-74.5,76.3-74.5,129.8c53.5,0,102.6-28.1,129.8-74.5l66.6-115.7
		C289.9,13.7,289,12.8,288.1,11.9z"/>
	<path class="st7" d="M169.7,75L285.5,8.4c-1.8-0.9-2.6-2.6-4.4-3.5L20.7,75C67.1,102.2,124.1,102.2,169.7,75z"/>
	<path class="st8" d="M261.8,0.5H149.6C96.1,0.5,47,29.4,20.7,75L281.1,4.9C274.9,2.3,268.8,0.5,261.8,0.5z"/>
	<path class="st9" d="M225,130.3l66.6-115.7c-0.9-0.9-1.8-1.8-2.6-3.5L96.1,203.9c0,26.3,7,51.7,20.2,74.5
		c3.5,6.1,7.9,12.3,12.3,18.4c7,0.9,14,1.8,21,1.8c26.3,0,51.7-7,74.5-20.2C197.8,232.9,197.8,175.9,225,130.3z"/>
	<path class="st10" d="M95.2,204.8c0,26.3,7,51.7,20.2,74.5c3.5,6.1,7.9,12.3,12.3,18.4l96.5-167.5
		C197.8,175.9,148.7,204.8,95.2,204.8z"/>
	<path class="st11" d="M225,130.3l-96.5,167.5c7,0.9,14,1.8,21.9,1.8c26.3,0,51.7-7,74.5-20.2C197.8,232.9,197.8,175.9,225,130.3z"
		/>
	<path class="st12" d="M294.2,18.9c-2.6-4.4-5.3-7.9-8.8-10.5L169.7,75c-46.5,26.3-74.5,76.3-74.5,129.8
		c53.5,0,102.6-28.1,129.8-74.5c-26.3,46.5-26.3,102.6,0,149.1c45.6-26.3,74.5-75.4,74.5-128V38.2C299.5,31.2,297.7,25.1,294.2,18.9
		z"/>
	<path class="st13" d="M285.5,8.4L169.7,75c-46.5,26.3-74.5,76.3-74.5,129.8L288.1,11.9C287.2,11,286.3,9.3,285.5,8.4z"/>
	<path class="st12" d="M95.2,204.8c53.5,0,102.6-28.1,129.8-74.5l66.6-115.7c-0.9-0.9-1.8-1.8-2.6-3.5L95.2,204.8z"/>
	<path class="st14" d="M291.6,14.5L225,130.3c-26.3,46.5-26.3,102.6,0,149.1l70.1-260.4C293.4,17.2,292.5,16.3,291.6,14.5z"/>
	<path class="st15" d="M225,279.3c46.5-26.3,74.5-75.4,74.5-128.9V38.2c0-7-1.8-13.2-5.3-19.3L225,279.3z"/>
</g>
</svg>
