<?xml version="1.0" encoding="utf-8"?>
<!-- Generator: Adobe Illustrator 24.0.3, SVG Export Plug-In . SVG Version: 6.00 Build 0)  -->
<svg version="1.1" id="Layer_1" xmlns="http://www.w3.org/2000/svg" xmlns:xlink="http://www.w3.org/1999/xlink" x="0px" y="0px"
	 viewBox="0 0 300 300" style="enable-background:new 0 0 300 300;" xml:space="preserve">
<style type="text/css">
	.st0{fill:#36A534;}
</style>
<path class="st0" d="M199.2,150.3c8.4-5.3,16.8-10.6,24.8-15.6c0-44.7,0-88.8,0-134.1C169.3,34.4,115.6,67.8,61.2,101.6
	c1.6,0.8,2.3,1.3,3,1.6c43.7,15.7,87.5,31.4,131.2,47C196.7,150.2,197.9,150.2,199.2,150.3z M195.4,150.2c1.3,0,2.5,0.1,3.8,0.1
	c9.8,5.4,20.7,7.8,31,12.1c2.8,1.1,5.6,2.1,8.7,3.2c0,44.3,0,88.5,0,134c-59.5-21.4-118.4-42.5-177.6-63.7c0-40.6,0-80.7,0-122.3
	c41.4,14.9,82.4,29.6,123.8,44.4C188.6,155.5,193.2,154.5,195.4,150.2z M227.5,282.8c0-36.7,0-72.4,0-108.8
	c-14-5.1-28.1-10.2-42.1-15.3c-36.8,22.9-73.3,45.5-111.1,69.1C126,246.4,176.5,264.5,227.5,282.8z"/>
</svg>
