<svg id="Layer_1" data-name="Layer 1" xmlns="http://www.w3.org/2000/svg" viewBox="0 0 300 300"><defs><style>.cls-1{fill:#ff5722;}</style></defs><title>-icon-color</title><path class="cls-1" d="M11.72,121.74c-3,0-6.17-1.22-6.17-8.6,0-6.57,6.27-9.6,9.91-9.6,3.44,0,6.37,1.61,6.37,5.66,0,8.39-6,12.54-10.11,12.54M251.27,163.5a29,29,0,0,1-.41-5.16c0-8.29,1-22.85,2.53-26.19,1.72-3.54,7-7.28,10.21-7.28a3.89,3.89,0,0,1,3.85,4.25c0,3.44-2.43,11.43-2.43,22.35s1.31,14.15,4.15,14.15,3.64-3.74,3.64-7.28c0-8.29,1.11-22.85,2.73-26.19,1.61-3.54,7-7.28,10.21-7.28,1.62,0,3.64,1.22,3.64,4.25,0,3.44-2.33,11.43-2.33,22.35a131.25,131.25,0,0,0,1.42,18.1c6-5.06,5.86-10,8.59-10,1.12,0,2.43,1.21,2.43,3.54,0,2.93-1.62,8.39-10.21,13.65a81.84,81.84,0,0,1,1,10.31c0,6.67-3.14,19.21-22.14,19.21-11.43,0-16.49-6.37-16.49-12.23,0-10.42,12.14-13.55,24.37-18.1l-1.31-5.77a12.1,12.1,0,0,1-10.42,5.67c-4.85,0-8.08-1.93-10.21-5a12.35,12.35,0,0,1-9.91,5c-6.17,0-9.81-3-11.63-7.59-2.22,3.64-6.37,7.59-12.53,7.59-5.16,0-8.8-1.93-11.13-5.06a12.39,12.39,0,0,1-10.11,5.06c-9.71,0-13.25-7.79-13.25-17.5,0-5.36,1.83-13.35,1.83-18.4,0-2.83-.51-4.75-2.43-4.75-6.47,0-7.28,15.37-7.28,25.48,0,1.92.1,3.84.1,7.78,0,2.83-1.92,7.39-11.83,7.39-1,0-1.62-.61-2-1.72a23.32,23.32,0,0,1-3.64,2.52,82.14,82.14,0,0,1,1,10.32c0,6.67-3.14,19.21-22.15,19.21-11.42,0-16.48-6.37-16.48-12.24,0-10.41,12.14-13.55,24.37-18.1-.2-1.51-.61-3-.91-4.44a15.89,15.89,0,0,1-10.62,4.34c-5,0-8.39-2.52-10.71-6.16A12.6,12.6,0,0,1,114,175.73c-9.91,0-13.35-7.78-13.35-17.49,0-8.39,1-23,2.63-26.29s6.87-7.28,10-7.28a3.87,3.87,0,0,1,3.84,4.25c0,3.44-2.43,11.42-2.43,22.34s1.22,14.16,3.64,14.16c1.72,0,2.63-1.62,3.44-3.24a38.51,38.51,0,0,1-1-8.29c0-21.74,12.14-29.12,20.22-29.12,5.06,0,7.18,1.92,8.19,3.84,2.23-2.12,5.36-3.84,7.59-3.84a3.93,3.93,0,0,1,3.84,4.25c0,3.44-2.53,11.42-2.53,22.34a121.47,121.47,0,0,0,1.42,18.1,23.54,23.54,0,0,0,3.74-4c0-16,3.84-61,5.46-64.41s7-7.18,10.21-7.18c1.52,0,3.64,1.21,3.64,4.25,0,2.22-2.63,19.61-4.14,34.28,2.73-4,7.18-7.49,12.43-7.49,8.2,0,9.91,6.17,9.91,13.35,0,5.46-1.11,10.72-1.11,17.49,0,7.49,1.82,9.91,3.74,9.91a3.31,3.31,0,0,0,2.83-1.92,30.26,30.26,0,0,1-.5-5.26c0-4.14.71-15.57,1.92-26.59-3-.1-5.87-.61-5.87-3.14,0-1.11,2.73-2.73,6.58-4.34.8-7.89,1.72-14.56,2.32-15.78,1.72-3.44,7-7.18,10.11-7.18a3.89,3.89,0,0,1,3.85,4.25c0,1.42-.71,7-1.72,13.85,2.93-.81,6.37-2.93,8.69-2.93,1.22,0,1.52,1.21,1.52,2.33,0,2.62-1.72,7.38-2.63,8.29-1.82,1.82-4.55,2.63-8.9,3.34-.91,8.19-1.82,16.37-1.82,20.82,0,10.83,2.13,14.16,4.76,14.16,4.24,0,4.65-4.55,6.67-5.76v-1.52c0-8.29,4.65-53.89,6.27-57.33s7-7.18,10.21-7.18A3.93,3.93,0,0,1,251.47,98c0,3.43-6.16,42.46-6.16,53.28s1.11,14.16,3.64,14.16c.9.1,1.71-.81,2.32-1.92ZM66.33,173.1a12.18,12.18,0,0,1-8.4,3.14c-8.49,0-13.14-5.76-13.14-15.27,0-5.36,1.62-12.64,1.62-17.39,0-2.73-.61-4.65-2.43-4.65-4.25,0-8,13-8,29.83,0,2.83-1.92,7.38-11.83,7.38-1.52,0-2.22-1.22-2.32-3.34a12.2,12.2,0,0,1-8,2.93C3.94,175.73.5,168,.5,158.24c0-8.39,1-23,2.63-26.29s6.88-7.28,10.11-7.28a3.87,3.87,0,0,1,3.84,4.25c0,3.44-2.42,11.42-2.42,22.34s1.21,14.16,3.64,14.16,3-3.14,4.34-5c.21-2.12.31-4.24.41-6.47.1-17.29.4-19.11,1.11-21.53.91-5,8.6-8.3,11.93-8.3,2.33,0,3.54,1.32,3.54,3.75,0,2.22-1.52,5.25-2.12,9.6,2.42-5.46,8.79-12.44,14.66-12.44,6.57,0,8.29,5,8.29,11.13,0,6.67-1.72,13.24-1.72,20.52,0,5.56.91,8.09,2.63,8.8a8,8,0,0,1-.2-1.62c0-6.17,6.47-11.22,9.3-11.22,2,0,2.63,1.82,2.83,4.75.3,4.55,2.33,11.33,7.69,11.33,2.93,0,4.65-1.72,4.65-4.45,0-3.54-3.24-6.88-7.28-10.32-.51-.3-1.32-.91-2.43-1.72-5.86-4.24-12.13-8.79-12-16.68.1-9.61,7.68-14.26,18.6-14.16s18.91,7.28,18.81,13.55-6.57,11.23-9.4,11.12c-2,0-2.63-1.81-2.83-4.75-.31-4.55-2.23-11.42-7.59-11.42-2.93,0-4.65,1.61-4.65,4.35,0,3.94,3.64,8.59,8.8,11.82.1.11.3.21.4.31C92.41,150,98.38,155,98.38,162.89c0,9.61-7.48,14.26-18.4,14.26A20.18,20.18,0,0,1,66.33,173.1Zm45.4-51.36c-3,0-6.17-1.22-6.17-8.6,0-6.47,6.27-9.6,9.91-9.6,3.44,0,6.37,1.61,6.37,5.66C121.94,117.59,116,121.74,111.73,121.74Zm36.7,66.33a40.51,40.51,0,0,0-.4-5.66c-6,2.32-12.64,5.26-12.64,9.3a5.4,5.4,0,0,0,5.66,5.66c4.55,0,7.38-4.85,7.38-9.3Zm-9.81-51.77c-3.84,2.53-6.57,8.39-6.57,14.86,0,13.05,4.45,13,6.17,12.74a7.51,7.51,0,0,0,5.46-3.64,15.87,15.87,0,0,0,2.22-7.38c.41-4.75,2.53-23.15-7.28-16.58Zm138.84,51.77a40.66,40.66,0,0,0-.41-5.66c-6,2.32-12.64,5.26-12.64,9.3a5.41,5.41,0,0,0,5.67,5.66c4.54,0,7.38-4.85,7.38-9.3Z"/></svg>