<svg id="Layer_1" data-name="Layer 1" xmlns="http://www.w3.org/2000/svg" viewBox="0 0 300 300"><defs><style>.cls-1{fill:#09283d;}.cls-2{fill:#329afb;}</style></defs><title>-icon-color</title><path class="cls-1" d="M2.72,153,145.64,298.33c-.28.39-1.9-.36-3.24-.36-44.91,0-89.82,0-134.73.13-4.7,0-7-.45-6.93-6.18C1,246.76.88,201.6.87,156.45v-2.68Z"/><path class="cls-2" d="M299.37,149.9c0,46.89-.11,93.79.13,140.68,0,5.87-1.56,7.57-7.46,7.54q-67.73-.33-135.47,0c-6,0-7.44-1.72-7.41-7.53.23-43.91-.07-87.83.31-131.74.07-7.4-2.14-8.92-9.12-8.87-43.91.32-87.83.06-131.75.31-6.16,0-8-1.72-8-7.92q.28-67-.13-134c0-5.13,1.26-6.79,6.57-6.79Q150,1.83,292.9,1.56c6.26,0,6.56,2.78,6.55,7.66Q299.26,79.56,299.37,149.9Z"/></svg>