<svg id="Layer_1" data-name="Layer 1" xmlns="http://www.w3.org/2000/svg" viewBox="0 0 300 300"><defs><style>.cls-1{fill:#0466a4;}.cls-2{fill:#fdd459;}</style></defs><title>-icon-color</title><path class="cls-1" d="M.5,121.07c13.63,2,27.4-.18,42,1.21V250H93.87v34.45H.5Z"/><path class="cls-1" d="M147.61,284.22c-8.09-36.86-16.08-73.28-24.07-109.7-2.6,36.7-.86,73.17-2.87,109.81H82v-162h66.9l3.46.13c5.24,25.76,10.56,52,15.88,78.15l1.77.17c4.47-26,8.93-52,13.48-78.45h66.9v162H211.68c-2-36.64-.28-73.11-2.87-109.81-8,36.42-16,72.84-24.08,109.7H147.61Z"/><path class="cls-2" d="M299.47,15.55c.35,4-2.9,5.19-5.43,6.8Q234.41,60.09,174.76,97.8c-3.24,2.06-6.06,2.94-10.14,1.64C130.91,88.66,97.09,78.22,63.31,67.64c-.76-.23-1.4-.86-3.34-2.09,14.48-3.11,27.86-6.1,41.29-8.86Q191.14,38.24,281,19.83c5.64-1.16,11.72-.75,16.78-4.28Z"/></svg>