<?xml version="1.0" encoding="utf-8"?>
<!-- Generator: Adobe Illustrator 24.0.3, SVG Export Plug-In . SVG Version: 6.00 Build 0)  -->
<svg version="1.1" id="Layer_1" xmlns="http://www.w3.org/2000/svg" xmlns:xlink="http://www.w3.org/1999/xlink" x="0px" y="0px"
	 viewBox="0 0 300 300" style="enable-background:new 0 0 300 300;" xml:space="preserve">
<style type="text/css">
	.st0{fill:#0F5DA2;}
</style>
<g>
	<path class="st0" d="M270.3,160.9c-3.3-6.2-7.6-10.4-13.2-14.2c-8.5-5.9-17.4-11.3-26.3-16.6c-6.3-3.8-11.4-8.6-15.3-14.8
		c-3-4.7-6.3-9.2-9.6-13.8c-5.4-7.5-11.7-14-20.1-18.1c-4.7-2.3-7.2-6-8.1-11c-0.7-3.8-1.8-7.4-4-10.7c-0.8-1.2-1.1-2.6-1.1-4.1
		c-0.9-22.9-9.9-41.6-28.9-55.1c-0.5-0.3-0.9-0.8-1.9-1.7c13.9-1.1,27,0.1,39.9,3C243.2,17.5,289,66.9,298,129.1
		C309.7,210.2,253,286,171.5,297.9c-42.5,6.2-80.7-4.3-114.7-30.4c-1.4-1.1-2.7-2.1-3.5-3.8c-14.8-33.9-19.6-68.5-8.5-104.5
		c0.5-1.5,1.1-3,1.6-4.5c0.1-0.3,0.4-0.5,0.9-1.1c0.8,15.3,4.1,29.7,11.3,42.8c20.3,37,51.8,55.6,94.1,55.9c1.8,0,2.9-0.5,3.8-2
		c10.9-17.2,28.1-19.7,45.9-14.7c3.6,1,6.4,3.4,9.3,5.8c3,2.5,4.5,7.3,10.4,5.5c2-0.6,0.5,3.5,1.8,5.5c2.8-1.2,4.2-3.9,5.6-6.6
		c1.5,1.7,0.4,3.9,1.4,5.9c2.3-1.4,2.5-4.3,4.6-6.4c0.4,3,0.7,5.5,1.1,8.6c2.9-3.5,3.6-7.3,4.3-11.3c2.3,2.3,1.7,5.8,3.6,8.6
		c1.9-3.2,2-6.4,2.2-10.1c2,2.2,1.7,4.7,2.8,6.8c2.1-3,1.4-6.4,1.6-9.9c2.5,1.7,1.8,4.8,3.5,6.6c1.9-4.5,1.7-9.1,0.9-13.7
		c-1.1-6.2-0.3-12.1,2.2-17.8c3.8-8.4,6.4-17,6.3-26.3c0-3.7,2.1-6.2,4.2-8.9c2.9-3.7,5.3-7.7,4-12.7
		C272,163.7,270.3,160.9,270.3,160.9z"/>
	<path class="st0" d="M32.4,242.1c-1,0.2-1.3-0.7-1.8-1.3c-17.8-23.5-27.9-50-30.1-79.4c-0.1-1.9-0.2-3.7,0.8-5.6
		c14-26.1,33-47.3,59.8-60.8c0.5-0.3,1.1-0.4,2.7-1c-4.6,7-7,14-12,19.8c-21.2,25-32.2,53.7-30.1,86.8c0.8,12.8,4,25.2,9,37
		C31.4,239.2,32.5,240.5,32.4,242.1L32.4,242.1z"/>
	<path class="st0" d="M4.6,113.6c4.3-17.4,11.2-32.8,20.8-47.1c0.6-0.9,1.5-1.7,2.4-2.3c30.5-18.4,62.7-25.3,98.4-13.9
		c-4.8,1.6-9.2,2.5-13,4.5c-11.6,6-23.8,9-36.6,11.6c-28.5,5.8-52,20.5-69.4,44.2C6.6,111.4,5.8,112.1,4.6,113.6z"/>
	<path class="st0" d="M169.8,55c-4.1-1.2-7-5-11.3-5.5c-7.1-0.8-12.5-5-18.4-8.4c-25.7-14.9-52.6-18.6-81-8.2
		c-0.4,0.2-0.9,0.2-1.6,0.3c-0.2-1.2,0.7-1.6,1.3-2.1c0.7-0.6,1.5-1.2,2.3-1.8c11.5-8.4,24.1-15,37.5-20c7.1-2.6,13.9-0.2,20.6,1.4
		c15,3.7,26.6,12.8,36.3,24.5C160.8,41.4,165.4,48.1,169.8,55L169.8,55z"/>
	<path class="st0" d="M270.3,164.4c1,3.9,0.4,7.4-2.6,10.1c-4.3,4-5.7,8.7-5.7,14.5c0,9.4-5.2,17.2-8.5,25.6
		c-0.6,1.5-1.9,1.4-3.2,1.7c-6,1-11.8,2.7-17.3,5.3c-11.8,5.5-23.6,4.2-35.4,0.1c-0.1-0.1-0.3-0.1-0.4-0.2c-2.4-1.3-6-2.8-5.1-5.5
		c1-2.8,4.7-1,6.8-0.2c9.7,3.7,19.5,4.1,29.6,1.5c12.2-3.1,21.2-10.7,28.9-20.1c4.7-5.8,3.9-12.5,1.3-19.1c-0.9-2.4-3.2-3.3-5.5-4.3
		c-4.6-1.9-7.9-5.3-10-9.8c-0.8-1.8-1-3.5,0.6-4.8c1.6-1.3,3.1-0.3,4.3,0.7c2.9,2.7,5.5,3,8.8,0.3c3.6-2.9,7.7-2.8,11.3,0.5
		C268.8,161.4,270.1,163.5,270.3,164.4z"/>
	<path class="st0" d="M175.9,122.2c5.4,1,9.8,1.6,14.2,0.3c1.9-0.6,1.7,1.2,2.5,2c2.3,2.4,5.5,3.8,7.5,6.6c1,1.5,2,3.2,0.4,4.8
		c-1.5,1.6-3.4,1-4.7-0.3c-4-4.1-9.1-5-14.4-5.5c-2.3-0.2-4.4-0.8-6.4-1.9c-1.6-0.8-2.4-1.9-1.9-3.8
		C173.7,122.2,175.1,122,175.9,122.2z"/>
	<path class="st0" d="M32.3,242.2c0.6,0,0.8,0.3,0.7,0.9c0,0.1-0.2,0.2-0.3,0.3C32.6,243,32.5,242.5,32.3,242.2
		C32.4,242.1,32.3,242.2,32.3,242.2z"/>
	<polygon class="st0" points="56,33.8 55.8,33.5 56.1,33.5 	"/>
	<path class="st0" d="M169.7,55c0.1,0.2,0.3,0.4,0.4,0.6C169.3,55.8,169.7,55.3,169.7,55C169.8,55,169.7,55,169.7,55z"/>
</g>
</svg>
