<svg id="Layer_1" data-name="Layer 1" xmlns="http://www.w3.org/2000/svg" viewBox="0 0 300 300"><defs><style>.cls-1{fill:#1f2555;}.cls-1,.cls-2{fill-rule:evenodd;}.cls-2{fill:#00a6a7;}</style></defs><title>-icon-color</title><g id="Symbols"><g id="Logo"><g id="pega_logo_horizontal_positive_rgb" data-name="pega logo horizontal positive rgb"><path id="Fill-1" class="cls-1" d="M267.38,76.85l-.37-.18a7,7,0,0,0-7.7,1.58l-.43.45,6.89,3.38Zm31.52,37.81s-3,5.37-4.35,7.36-5.57,3.24-9.22,1.5c-1.67-.8-17.3-9.91-23.28-9.39-30.26,2.64-38.51-9.83-39.48-11s-2.79-.61-1.49,1.62c6.64,11.39,26.28,16.67,26.28,16.67,5.14,12.38,5.76,21,5.76,21a88.49,88.49,0,0,0-16.41-10.08c-15.58-10.45-40-23.4-73.52-31.51,1.92-26.62,15.36-65.11,78.18-56,0,0,12.6,2.07,21,7.88,0,0-2,2.11-4.68,4.76s.29,4.34.29,4.34l13.26,10.44c.16,5.51.39,7.06,4.54,12s20.29,21.9,22.4,24.16C300.64,111.15,298.9,114.66,298.9,114.66ZM154.22,62.77a88.24,88.24,0,0,0-1.36,35.88c-3.16-.63-6.36-1.23-9.66-1.77-68.75-11.19-89.49,22.7-81.46,50.18A459.84,459.84,0,0,0,.5,175c27-64.72,85.63-121.68,135.12-129.16,16.16-2.14,20.71,8.35,18.6,17Z"/><path id="Fill-2" class="cls-2" d="M163.74,121.92c26.79-2.12,52.07.57,73,10.51-15.58-10.45-40-23.4-73.53-31.51A107.41,107.41,0,0,0,163.74,121.92Zm-3.86.33c-30,2.87-65.5,12.55-98.14,24.81-8-27.48,12.71-61.37,81.46-50.18,3.3.54,6.5,1.14,9.66,1.77a108.87,108.87,0,0,0,7,23.6Z"/><path id="Fill-3" class="cls-1" d="M237.5,228.05l8.39-20.47,8.39,20.47Zm2.16-37.16-27,63.58h14.16l5.77-14.15h26.7L265,254.47h14.52l-27.06-63.58ZM64.46,213.33c0,5.44-4.08,9.62-11.07,9.62H42.3V203.52H53.11c7,0,11.35,3.36,11.35,9.63ZM54.29,190.89h-26v63.58h14V235.4H52.93c14.26,0,25.71-7.64,25.71-22.35v-.18C78.64,199.88,69.47,190.89,54.29,190.89ZM154.74,198c-6.67,6.52-10.05,14.76-10.05,24.51s3.32,17.94,9.87,24.33,14.76,9.62,24.44,9.62c11.46,0,20.42-3.47,26.64-10.31l.32-.36V216.6H178.31v11.81h14.42v11.92a26.79,26.79,0,0,1-13.86,3.35,20.23,20.23,0,0,1-14.53-5.78c-4-3.81-6-9-6-15.35s2.08-11.56,6.16-15.44a21.42,21.42,0,0,1,15.3-5.88,27.41,27.41,0,0,1,8.38,1.16,21,21,0,0,1,6.72,3.89l7.73-9.77c-4.08-3.59-11.42-8.32-23.65-8.32A33.63,33.63,0,0,0,154.74,198Zm-52,31.06h27.38V216.6H102.77V203.33h34.06V190.89h-48v63.58h48.41V242H102.77v-13Z"/></g></g></g></svg>