<svg id="Layer_1" data-name="Layer 1" xmlns="http://www.w3.org/2000/svg" viewBox="0 0 300 300"><defs><style>.cls-1{fill:#3b3b3c;}</style></defs><title>-icon-color</title><path class="cls-1" d="M172.9.5c-2.09,0-4.11.06-6.08.17-29.59,1.68-47.06,15.42-55.77,25.09-.06-.49-.14-1-.23-1.49l0-.2c0-.12-.06-.24-.08-.36C109,15.19,102.36,5.33,81.19,5.33H31.48v52H51.85a11,11,0,0,1,1.19.05c2.52.26,3.37,1.48,3.37,4.49V299.5h59.26V210.33c0-2.41,0-4.66-.11-6.67,9.26,8.5,26.93,20.2,54.55,20.2,57.92,0,98.41-45.91,98.41-111.67C268.52,45.39,230.07.5,172.9.5Zm-12,171.75A41.32,41.32,0,0,1,140,166.92h0l0,0a37.52,37.52,0,0,1-3.5-2.28c-.46-.33-.9-.7-1.35-1.05-.74-.58-1.46-1.18-2.16-1.82-.42-.38-.85-.77-1.27-1.18q-1.2-1.19-2.31-2.46c-.26-.3-.54-.58-.79-.89-.89-1.06-1.72-2.18-2.52-3.32-.32-.45-.61-.92-.91-1.38q-.82-1.26-1.59-2.58c-.27-.48-.55-1-.81-1.45-.61-1.13-1.18-2.28-1.72-3.46-.1-.23-.23-.45-.33-.69-.61-1.38-1.16-2.8-1.68-4.23-.18-.49-.34-1-.5-1.47-.36-1.06-.69-2.12-1-3.2-.14-.49-.28-1-.41-1.49-.38-1.43-.72-2.86-1-4.32,0-.11-.06-.21-.08-.32-.3-1.56-.55-3.14-.77-4.72-.06-.48-.11-1-.17-1.45-.14-1.17-.25-2.34-.34-3.51,0-.48-.08-1-.1-1.44-.1-1.59-.16-3.18-.16-4.76v0c0-36.22,16.1-53.49,34.36-58.7a46.92,46.92,0,0,1,12.83-1.76c28,0,46.79,24.12,46.79,60.05,0,2.28-.11,4.47-.25,6.61-.05.69-.11,1.36-.17,2-.13,1.45-.3,2.86-.49,4.24-.11.72-.2,1.46-.32,2.17-.26,1.52-.57,3-.9,4.44-.27,1.15-.57,2.26-.89,3.36-.22.79-.45,1.58-.69,2.34-.34,1-.71,2.05-1.09,3-.17.45-.35.89-.53,1.32a56.2,56.2,0,0,1-3.24,6.65l0,0C190.86,164.91,175.82,172.25,160.86,172.25Z"/></svg>