<svg id="Layer_1" data-name="Layer 1" xmlns="http://www.w3.org/2000/svg" viewBox="0 0 300 300"><defs><style>.cls-1{fill:#0066b2;}</style></defs><title>-icon-color</title><path class="cls-1" d="M11,199.28C11,129.5,55.67,85.82,110.79,85.82s99.87,43.91,99.87,98-44.72,98-99.87,98C66.93,281.86,34.2,268,.5,235.92c19.36,36.63,58.18,62,107.1,62,74.16,0,123.23-52.62,123.23-117.55S184.25,65.14,109.9,65.14C46.11,65.14-9.64,128.38,11,199.28Z"/><path class="cls-1" d="M183,213.33C168.06,231,139.94,241.28,109,238c-43.51-4.58-76-42.19-72.67-74.15,0,0-2,33.42,52.71,54.91C147.41,241.71,183,213.33,183,213.33Z"/><path class="cls-1" d="M273.8,126.13c0-53.52-49.14-96.87-109.72-96.87a119.32,119.32,0,0,0-61.44,16.62,127.16,127.16,0,0,1,38.5-6C205.69,39.89,258,87.23,258,145.62a96.86,96.86,0,0,1-10.1,42.88C264,171.63,273.8,149.91,273.8,126.13Z"/><path class="cls-1" d="M299.5,76c0-40.8-37.43-73.9-83.61-73.9A91.11,91.11,0,0,0,169,14.74a97.52,97.52,0,0,1,29.36-4.56c49.25,0,89.16,36.08,89.16,80.66a74.24,74.24,0,0,1-7.69,32.67C292.07,110.69,299.5,94.11,299.5,76Z"/></svg>