<svg id="Layer_1" data-name="Layer 1" xmlns="http://www.w3.org/2000/svg" xmlns:xlink="http://www.w3.org/1999/xlink" viewBox="0 0 300 300"><defs><style>.cls-1{fill:url(#linear-gradient);}.cls-2{fill:url(#linear-gradient-2);}</style><linearGradient id="linear-gradient" x1="3239.85" y1="5497" x2="3252.05" y2="5497" gradientTransform="matrix(19.48, -18.81, -18.81, -19.48, 40321.06, 168253.15)" gradientUnits="userSpaceOnUse"><stop offset="0" stop-color="#5cc8b9"/><stop offset="1" stop-color="#48a1de"/></linearGradient><linearGradient id="linear-gradient-2" x1="3239.85" y1="5494.54" x2="3252.05" y2="5494.54" gradientTransform="matrix(19.48, -18.81, -18.81, -19.48, 40333.46, 168265.98)" xlink:href="#linear-gradient"/></defs><title>-icon-color</title><g id="g25114"><g id="g25116"><g id="g25122"><g id="g25124"><path id="path25132" class="cls-1" d="M24.42,123.91c-.78,45.74,18.58,81,62.78,114.15h0c19.23,14.43,90.17,58.72,94.35,61.11h0l.57.33h10.36l.48-.28c2.86-1.61,15.89-9.06,23.5-13.4h0a3.82,3.82,0,0,0,.1-6.56h0l-1.93-1.17c-21-13-62.29-39.11-102.41-67.51h0c-32.29-22.82-50.49-54.19-49.93-86h0a87.71,87.71,0,0,1,89.1-86.15h0c49.24.84,87.15,38.75,86.34,86.28h0a99.66,99.66,0,0,1-9.59,39.27h0c-.73,1.51-1.51,2.9-2.32,4.36h0l-1.32,2.41a3.81,3.81,0,0,0,1.38,5.09h0c5.68,3.38,17.49,10.38,21.72,12.72h0L250,190a3.84,3.84,0,0,0,5-.89h0l1.12-1.43c11.44-15.3,19.07-39.75,19.46-62.34h0C276.77,56.56,222.5,1.74,152.06.52h0c-.73,0-1.48,0-2.21,0h0C81.65.5,25.61,55.4,24.42,123.91"/></g></g></g></g><g id="g25134"><g id="g25136"><g id="g25142"><g id="g25144"><path id="path25152" class="cls-2" d="M203.21,195.37l-1.89,1.46a246.22,246.22,0,0,1-27.58,17.83h0a1.86,1.86,0,0,0-.42,3h0c2.54,1.76,10.84,6.71,15.89,9.77h0c4.06,2.44,10.63,6.62,12.27,7.77h0c1.82,1.29,3.19,1.3,5.22.21h0A272.53,272.53,0,0,0,236,216h0a2.14,2.14,0,0,0-.05-3.58h0c-2.15-1.38-23.08-14.05-26.63-16.18h0l-1.76-1.09a4,4,0,0,0-2-.56h0a3.73,3.73,0,0,0-2.32.8"/></g></g></g></g></svg>