<svg id="Layer_1" data-name="Layer 1" xmlns="http://www.w3.org/2000/svg" viewBox="0 0 300 300"><defs><style>.cls-1{fill:#00a1e0;}.cls-2{fill:#fff;}</style></defs><title>-icon-color</title><path class="cls-1" d="M124.93,68.18A52.4,52.4,0,0,1,162.84,51.9,52.94,52.94,0,0,1,209,79.25,63.75,63.75,0,0,1,235,73.71c35.6,0,64.46,29.11,64.46,65s-28.86,65-64.46,65a64.13,64.13,0,0,1-12.7-1.27,47.1,47.1,0,0,1-61.74,19.39,53.76,53.76,0,0,1-99.94-2.43,49.51,49.51,0,0,1-10.25,1.07C22.84,220.52.5,198,.5,170.1a50.51,50.51,0,0,1,25-43.68,58.07,58.07,0,0,1,99.48-58.24"/><path class="cls-2" d="M43.81,153.89c-.19.49.07.59.13.67a18,18,0,0,0,1.7,1,18.3,18.3,0,0,0,8.94,2.09c6.14,0,9.94-3.27,9.94-8.52v-.1c0-4.86-4.29-6.62-8.33-7.89l-.52-.17c-3-1-5.67-1.84-5.67-3.84v-.11c0-1.71,1.54-3,3.91-3a17.62,17.62,0,0,1,7.8,2s.59.38.81-.19c.12-.31,1.14-3.06,1.25-3.36a.58.58,0,0,0-.3-.69,17.42,17.42,0,0,0-8.79-2.36h-.61c-5.62,0-9.53,3.39-9.53,8.25v.1c0,5.12,4.32,6.78,8.37,7.94l.65.2c2.95.91,5.5,1.69,5.5,3.77v.1c0,1.9-1.66,3.31-4.32,3.31a14.49,14.49,0,0,1-7.9-2.27c-.43-.25-.69-.44-1-.64a.48.48,0,0,0-.8.28l-1.21,3.36Z"/><path class="cls-2" d="M133.6,153.89c-.19.49.06.59.12.67a19.54,19.54,0,0,0,1.71,1,18.3,18.3,0,0,0,8.94,2.09c6.14,0,9.94-3.27,9.94-8.52v-.1c0-4.86-4.29-6.62-8.33-7.89l-.52-.17c-3-1-5.67-1.84-5.67-3.84v-.11c0-1.71,1.54-3,3.91-3a17.66,17.66,0,0,1,7.8,2s.59.38.81-.19c.12-.31,1.14-3.06,1.25-3.36a.58.58,0,0,0-.3-.69,17.42,17.42,0,0,0-8.79-2.36h-.61c-5.62,0-9.53,3.39-9.53,8.25v.1c0,5.12,4.32,6.78,8.37,7.94l.65.2c3,.91,5.5,1.69,5.5,3.77v.1c0,1.9-1.66,3.31-4.32,3.31a14.49,14.49,0,0,1-7.9-2.27c-.44-.25-.69-.43-1-.64a.53.53,0,0,0-.81.28l-1.21,3.36Z"/><path class="cls-2" d="M194.89,143.6a12.61,12.61,0,0,1-1.64,7,6.31,6.31,0,0,1-9.95,0,12.8,12.8,0,0,1-1.61-7,12.66,12.66,0,0,1,1.61-6.93,6.34,6.34,0,0,1,9.95,0,12.48,12.48,0,0,1,1.64,6.93m5.12-5.5a12.21,12.21,0,0,0-2.33-4.45,11.2,11.2,0,0,0-3.93-3,14.23,14.23,0,0,0-11,0,11.33,11.33,0,0,0-3.94,3,12.52,12.52,0,0,0-2.33,4.45,20.54,20.54,0,0,0,0,11,12.52,12.52,0,0,0,2.33,4.45,11,11,0,0,0,3.94,3,14.47,14.47,0,0,0,11,0,10.89,10.89,0,0,0,3.93-3A12.21,12.21,0,0,0,200,149.1a20.28,20.28,0,0,0,0-11"/><path class="cls-2" d="M242.05,152.2a.48.48,0,0,0-.65-.31,11.74,11.74,0,0,1-2.38.68,18.71,18.71,0,0,1-2.8.2,7.83,7.83,0,0,1-5.86-2.19c-1.42-1.46-2.21-3.82-2.2-7a10.89,10.89,0,0,1,2-6.74,6.68,6.68,0,0,1,5.69-2.5,17.12,17.12,0,0,1,5.41.77s.4.18.59-.35c.45-1.25.78-2.14,1.26-3.5a.46.46,0,0,0-.32-.6,19.06,19.06,0,0,0-3.41-.86,25.67,25.67,0,0,0-3.84-.26,14,14,0,0,0-5.71,1.09,11.75,11.75,0,0,0-4.12,3,12.69,12.69,0,0,0-2.5,4.45,17.82,17.82,0,0,0-.83,5.51c0,4.25,1.14,7.68,3.41,10.19s5.67,3.8,10.1,3.8a20.85,20.85,0,0,0,7.25-1.29.47.47,0,0,0,.21-.61l-1.26-3.47Z"/><path class="cls-2" d="M251,140.76a10.22,10.22,0,0,1,1.4-4.09,5.51,5.51,0,0,1,5-2.52,5.37,5.37,0,0,1,4.85,2.52,8.48,8.48,0,0,1,1.15,4.09Zm17.24-3.63a10.65,10.65,0,0,0-2.22-4,10.29,10.29,0,0,0-3.29-2.51,12.56,12.56,0,0,0-5-1,13.64,13.64,0,0,0-5.72,1.11,11.39,11.39,0,0,0-4,3.05,12.32,12.32,0,0,0-2.35,4.5,19.35,19.35,0,0,0-.76,5.53,18.62,18.62,0,0,0,.78,5.53,11.17,11.17,0,0,0,6.87,7.3,17.43,17.43,0,0,0,6.29,1c5,0,7.65-1.13,8.73-1.73.19-.11.38-.29.15-.83l-1.14-3.17a.49.49,0,0,0-.65-.3,16.84,16.84,0,0,1-7.11,1.28,8.24,8.24,0,0,1-5.93-2c-1.28-1.27-1.91-3.13-2-5.77l17.33,0a.52.52,0,0,0,.51-.45,18.84,18.84,0,0,0-.52-7.47Z"/><path class="cls-2" d="M112.22,140.76a10.07,10.07,0,0,1,1.4-4.09,5.5,5.5,0,0,1,4.95-2.52,5.38,5.38,0,0,1,4.86,2.52,8.71,8.71,0,0,1,1.15,4.09Zm17.23-3.63a10.78,10.78,0,0,0-2.21-4,10.29,10.29,0,0,0-3.29-2.51,12.61,12.61,0,0,0-5-1,13.67,13.67,0,0,0-5.72,1.11,11.39,11.39,0,0,0-4,3.05,12.63,12.63,0,0,0-2.35,4.5,19.71,19.71,0,0,0-.76,5.53,18.29,18.29,0,0,0,.79,5.53,11.11,11.11,0,0,0,6.87,7.3,17.39,17.39,0,0,0,6.29,1c5,0,7.64-1.13,8.73-1.73.19-.11.37-.29.14-.83l-1.13-3.17a.49.49,0,0,0-.65-.3,16.86,16.86,0,0,1-7.12,1.28,8.26,8.26,0,0,1-5.93-2c-1.28-1.27-1.9-3.13-2-5.77l17.33,0a.51.51,0,0,0,.5-.45,18.42,18.42,0,0,0-.52-7.47Z"/><path class="cls-2" d="M74.76,152.1a3.45,3.45,0,0,1-1-1,4.11,4.11,0,0,1-.52-2.26,3.78,3.78,0,0,1,1.55-3.35s1.49-1.3,5-1.25a34.58,34.58,0,0,1,4.7.4v7.88h0a35.51,35.51,0,0,1-4.68.62c-3.53.21-5.1-1-5.08-1m6.89-12.17c-.7-.05-1.61-.08-2.7-.08a16.12,16.12,0,0,0-4.27.55,11.13,11.13,0,0,0-3.62,1.67,8.41,8.41,0,0,0-2.51,2.86,8.29,8.29,0,0,0-.93,4,9.15,9.15,0,0,0,.79,3.95,7,7,0,0,0,2.27,2.71,9.32,9.32,0,0,0,3.53,1.53,20.74,20.74,0,0,0,4.58.47,30.73,30.73,0,0,0,5.27-.44c1.7-.29,3.79-.71,4.36-.84l1.22-.31a.54.54,0,0,0,.39-.57V139.58c0-3.47-.93-6.05-2.76-7.65s-4.5-2.4-8-2.4a28.59,28.59,0,0,0-4.64.43s-3.79.74-5.35,2a.54.54,0,0,0-.15.69l1.22,3.29a.44.44,0,0,0,.57.28,2.46,2.46,0,0,0,.29-.14,17.65,17.65,0,0,1,7.55-1.76,7,7,0,0,1,4.28,1.12c1,.73,1.43,1.82,1.43,4.13v.73c-1.49-.21-2.86-.33-2.86-.33"/><path class="cls-2" d="M221.43,131a.45.45,0,0,0-.26-.62,14.28,14.28,0,0,0-2.9-.5,8.61,8.61,0,0,0-4.47.72,7.81,7.81,0,0,0-2.93,2.16v-2.11a.5.5,0,0,0-.5-.53h-4.44a.5.5,0,0,0-.5.53V156.5a.53.53,0,0,0,.53.53h4.55a.53.53,0,0,0,.53-.53V143.58a15.3,15.3,0,0,1,.57-4.55,6.66,6.66,0,0,1,1.52-2.55,5.26,5.26,0,0,1,2.14-1.28,8.31,8.31,0,0,1,2.33-.33,9.93,9.93,0,0,1,1.9.23c.33,0,.52-.16.63-.47.3-.79,1.14-3.16,1.3-3.63"/><path class="cls-2" d="M178.7,119a14.5,14.5,0,0,0-1.72-.41,13.37,13.37,0,0,0-2.35-.18,9.94,9.94,0,0,0-7.34,2.63c-1.73,1.74-2.9,4.38-3.49,7.86l-.21,1.18h-3.93a.58.58,0,0,0-.58.5l-.65,3.61c0,.34.11.55.57.55h3.83l-3.89,21.69a26.18,26.18,0,0,1-1,4.27,8.72,8.72,0,0,1-1.21,2.47,3.21,3.21,0,0,1-1.58,1.22,6.48,6.48,0,0,1-2,.3,7.22,7.22,0,0,1-1.39-.16,4.16,4.16,0,0,1-.94-.3.47.47,0,0,0-.62.28c-.15.37-1.17,3.17-1.29,3.52a.52.52,0,0,0,.27.69,14.79,14.79,0,0,0,1.58.47,10.83,10.83,0,0,0,2.54.24,12.88,12.88,0,0,0,4.26-.66,8,8,0,0,0,3.2-2.24,11.43,11.43,0,0,0,2.25-3.88,32.93,32.93,0,0,0,1.52-5.81l3.91-22.1h5.71a.57.57,0,0,0,.57-.5l.65-3.61c0-.34-.1-.55-.56-.55h-5.55a24.58,24.58,0,0,1,.92-3.91,5,5,0,0,1,1.21-1.85,3.7,3.7,0,0,1,1.46-.91,6,6,0,0,1,1.86-.26,7.33,7.33,0,0,1,1.42.14,8.9,8.9,0,0,1,.89.22c.56.17.64,0,.75-.27l1.32-3.64a.46.46,0,0,0-.31-.6"/><path class="cls-2" d="M101.27,156.5a.5.5,0,0,1-.5.52H96.18a.5.5,0,0,1-.5-.52v-37a.5.5,0,0,1,.5-.52h4.59a.5.5,0,0,1,.5.52v37Z"/></svg>