<svg id="Layer_1" data-name="Layer 1" xmlns="http://www.w3.org/2000/svg" xmlns:xlink="http://www.w3.org/1999/xlink" viewBox="0 0 300 300"><defs><style>.cls-1,.cls-2{fill-rule:evenodd;}.cls-1{fill:url(#linear-gradient);}.cls-2{fill:#fff;}.cls-3{fill:#225fbc;}.cls-4{fill:#1fb2f0;}</style><linearGradient id="linear-gradient" x1="127.74" y1="215.36" x2="127.74" y2="89.48" gradientUnits="userSpaceOnUse"><stop offset="0" stop-color="#225fbc"/><stop offset="1" stop-color="#1fb2f0"/></linearGradient></defs><title>-icon-color</title><polyline class="cls-1" points="0.5 215.18 129.1 215.18 254.97 89.3 0.5 89.3 0.5 215.18"/><path class="cls-2" d="M151.52,113H126.47v59.55L104.58,113H82.89L64.2,162.75c-2-12.55-15-16.89-25.19-20.14-6.76-2.17-13.9-5.36-13.84-8.88,0-2.89,3.85-5.58,11.34-5.17,5,.27,9.48.67,18.32,4.94l8.72-15.16a67.9,67.9,0,0,0-28.38-6.71h-.06c-10.66,0-19.55,3.46-25,9.15a21.23,21.23,0,0,0-6,14.61c-.13,7.69,2.69,13.14,8.61,17.49,5,3.66,11.39,6,17,7.8,7,2.14,12.63,4,12.56,8a5.75,5.75,0,0,1-1.64,3.9c-1.74,1.8-4.4,2.47-8.08,2.54-7.1.14-12.36-1-20.74-5.92L4.06,184.58a58,58,0,0,0,28.36,7.54h1.3c8.79-.16,15.88-2.67,21.56-7.23.31-.25.62-.53.91-.79l-2.5,6.72H76.43l3.83-11.62a43.53,43.53,0,0,0,26.43.11l3.67,11.51h37.11V166.75h8.09c19.56,0,31.14-10,31.14-26.66C186.7,121.5,175.46,113,151.52,113Zm-57.89,51a22.69,22.69,0,0,1-8-1.42l7.94-25h.17l7.78,25.12A23.34,23.34,0,0,1,93.63,163.93ZM153,149.54h-5.52v-20.2H153c7.36,0,13.22,2.45,13.22,10,0,7.77-5.86,10.22-13.22,10.22"/><path class="cls-3" d="M159.88,207a6.63,6.63,0,1,1,6.65,6.83A6.61,6.61,0,0,1,159.88,207Zm6.65,8.19a8.17,8.17,0,1,0-8.29-8.19A8.16,8.16,0,0,0,166.53,215.2Zm-1.74-7.54h1.65l2.47,4.07h1.61l-2.69-4.14a2.45,2.45,0,0,0,2.45-2.59c0-1.85-1.1-2.67-3.32-2.67h-3.59v9.4h1.42Zm0-1.21v-2.91h2c1,0,2,.21,2,1.38,0,1.45-1.07,1.53-2.26,1.53Z"/><path class="cls-4" d="M208.3,177.51c0-9,6.78-15.09,15.31-15.09A13.46,13.46,0,0,1,236,169.55l-5.34,2.63a8,8,0,0,0-7.08-4.25c-5.08,0-8.93,4.07-8.93,9.58s3.85,9.58,8.93,9.58a7.89,7.89,0,0,0,7.08-4.24l5.34,2.58a13.53,13.53,0,0,1-12.42,7.17C215.08,192.6,208.3,186.48,208.3,177.51Z"/><path class="cls-4" d="M250.51,181.63H246v10.45h-6.21V162.9H253.4c6.08,0,9.79,4,9.79,9.41,0,5.16-3.23,7.92-6.38,8.66l6.56,11.11h-7.13Zm2-13.39H246v8h6.52c2.49,0,4.37-1.58,4.37-4S255,168.24,252.48,168.24Z"/><path class="cls-4" d="M293.25,171.08l-8.23,21h-2.71l-8.22-21v21h-6.21V162.9h8.7l7.09,18.2,7.08-18.2h8.75v29.18h-6.25Z"/></svg>