<svg id="Layer_1" data-name="Layer 1" xmlns="http://www.w3.org/2000/svg" viewBox="0 0 300 300"><defs><style>.cls-1{fill:#293e40;}.cls-2,.cls-4{fill:#fff;}.cls-2,.cls-3{fill-rule:evenodd;}.cls-3{fill:#81b5a1;}</style></defs><title>-icon-color</title><rect class="cls-1" width="300" height="300"/><g id="Layer_1-2" data-name="Layer 1-2"><path class="cls-2" d="M33.62,180.58V119.37H49.34v4.92a26.85,26.85,0,0,1,17.22-6.18A27.44,27.44,0,0,1,87.68,128c4,4.8,6.29,11,6.29,21.46v31.16H77.63V148.14c0-6-1.39-9.2-3.64-11.48a12.88,12.88,0,0,0-9.19-3.4A19.47,19.47,0,0,0,50,140.83v39.85Z"/><path class="cls-3" d="M136.05,118.11a35.87,35.87,0,0,0-24.72,61.77,7,7,0,0,0,9.18.48,25.61,25.61,0,0,1,30.51,0,7.07,7.07,0,0,0,9.32-.48,35.87,35.87,0,0,0-24.29-61.77m-.2,53.66A17.37,17.37,0,0,1,117.93,155c0-.34,0-.67,0-1a17.83,17.83,0,0,1,35.65-1.19c0,.39,0,.79,0,1.19a17.37,17.37,0,0,1-16.89,17.81h-.93"/><polygon class="cls-2" points="203.84 180.58 191.66 180.58 167.37 119.37 183.71 119.37 197 154.36 210.05 119.37 223.7 119.37 236.63 154.36 250.06 119.37 266.38 119.37 242.11 180.58 229.94 180.58 216.89 145.73 203.84 180.58"/><polygon class="cls-4" points="257.41 172.81 257.41 174.14 255.36 174.14 255.36 180.58 253.87 180.58 253.87 174.14 251.79 174.14 251.79 172.81 257.41 172.81"/><polygon class="cls-4" points="262.49 177.47 265.32 172.81 266.38 172.81 266.38 180.58 264.88 180.58 264.88 176.25 263.01 179.3 261.98 179.3 260.1 176.25 260.1 180.58 258.61 180.58 258.61 172.81 259.66 172.81 262.49 177.47"/></g></svg>