<svg id="Layer_1" data-name="Layer 1" xmlns="http://www.w3.org/2000/svg" viewBox="0 0 300 300"><defs><style>.cls-1{fill:#e10213;}.cls-2{fill:#383231;}.cls-3{fill:#b4b4b5;}</style></defs><title>-icon-color</title><path class="cls-1" d="M161.86,103.23c-6.26,2.68-17,2.68-23.27,0L23.1,57.57c-6.26-2.69-6.26-6.71,0-9.4L138.59,2.51c6.26-2.68,17-2.68,23.27,0L277.35,48.17c6.26,2.69,6.26,6.71,0,9.4Z"/><path class="cls-2" d="M143.51,290.78c0,6.71-5.37,10.29-11.64,8.05L16.39,253.18c-6.27-2.69-11.64-10.3-11.64-17V75.92c0-6.71,5.37-10.29,11.64-8l115.48,45.65c6.27,2.69,11.64,10.3,11.64,17Z"/><path class="cls-3" d="M156.49,290.78c0,6.71,5.37,10.29,11.64,8.05l115.48-45.65c6.27-2.69,11.64-10.3,11.64-17V75.92c0-6.71-5.37-10.29-11.64-8L168.13,113.52c-6.27,2.69-11.64,10.3-11.64,17Z"/></svg>