<?xml version="1.0" encoding="utf-8"?>
<!-- Generator: Adobe Illustrator 24.0.3, SVG Export Plug-In . SVG Version: 6.00 Build 0)  -->
<svg version="1.1" id="Layer_1" xmlns="http://www.w3.org/2000/svg" xmlns:xlink="http://www.w3.org/1999/xlink" x="0px" y="0px"
	 viewBox="0 0 300 300" style="enable-background:new 0 0 300 300;" xml:space="preserve">
<style type="text/css">
	.st0{fill:#008BB3;}
</style>
<g>
	<path class="st0" d="M228.1,65.1C221.3,46.4,203.2,34,183.6,34c-6.5,0-12.7,1.2-18.7,3.9c-13.9-13.3-32-20.4-51.3-20.4
		c-39.1,0-71.7,30.5-74.4,69.3c-23.4,9.8-38.8,32.6-38.8,58.4c0,35,28.4,63.4,63.4,63.4c6.8,0,14.8,0,23.4,0l3.9-25.2h-27
		c-20.7,0-37.9-17.5-37.9-38.5c0-17.5,11.9-32.6,29-36.7l10.7-2.4l-0.9-11.9v-0.3c0-0.6,0-1.5,0-2.1c0-27,21.9-48.6,48.6-48.6
		c15.1,0,29,6.8,38.5,19l7.7,10.1l0.3-0.6c4.4-8,13-12.7,21.9-12.7c13.9,0,25.5,11.3,25.5,25.5c0,2.7-1.2,8.6-1.2,8.6v0.6L207,93
		c0,0,9.8-2.7,20.2-2.7c25.5,0,46.2,20.7,46.2,46.2s-20.7,46.2-46.2,46.2h-15.1l-13.9,25.2c13,0,23.7,0,29.9,0l0,0l0,0
		c39.4-1.2,71.4-33.2,71.4-71.4C298.9,98,267.2,65.7,228.1,65.1z"/>
	<polygon class="st0" points="128.2,111.3 174.7,111.3 149.3,183.3 187.2,183.3 130.9,282.6 142.4,208.8 110.7,208.8 	"/>
</g>
</svg>
