<?xml version="1.0" encoding="utf-8"?>
<!-- Generator: Adobe Illustrator 24.0.3, SVG Export Plug-In . SVG Version: 6.00 Build 0)  -->
<svg version="1.1" id="Layer_1" xmlns="http://www.w3.org/2000/svg" xmlns:xlink="http://www.w3.org/1999/xlink" x="0px" y="0px"
	 viewBox="0 0 300 300" style="enable-background:new 0 0 300 300;" xml:space="preserve">
<style type="text/css">
	.st0{fill:url(#SVGID_1_);}
	.st1{fill:url(#SVGID_2_);}
</style>
<g>
	<linearGradient id="SVGID_1_" gradientUnits="userSpaceOnUse" x1="304.8308" y1="199.5129" x2="75.4872" y2="80.5139">
		<stop  offset="0" style="stop-color:#1A8850"/>
		<stop  offset="1" style="stop-color:#40B575"/>
	</linearGradient>
	<path class="st0" d="M67.2,115.1c8.9,1,15.4,4.7,20.9,10.4c0.7,0.7,0.9,2.1,1.1,3.3c2.3,14,8.6,25.9,19,35.5
		c14.6,13.3,31.9,18.6,51.5,15.6c11.9-1.8,22.3-7,31.2-15c2.9-2.6,6.3-1.9,8,1.7c3.3,7,7.8,13,14.2,17.4
		c20.6,14.2,47.8,7.9,60.1-13.9c14.1-25-2.1-57.3-30.5-61c-8.5-1.1-16.5,0.3-24.1,4c-4.6,2.2-7.2,1.1-8.1-3.9
		c-3.2-17.6-12.3-31.4-27.1-41.4c-19.8-13.3-47.3-13.2-67.1,0.1c-7.8,5.2-14.2,11.7-19,19.8c-0.4,0.7-0.9,1.4-1.3,2
		c-6.7-2.4-13.2-4.7-20-7.2c1.6-2.8,3.1-5.8,5-8.5c14.8-21.6,35-34.1,61.2-36.8c34.2-3.5,66.9,15,81.8,46.2c1.9,3.9,3.6,5.1,8,4.7
		c19-1.6,35.4,4.4,49,17.8c24.4,23.9,24.6,63.9,0.6,88.1c-10.7,10.7-23.5,17.1-38.5,18.4c-19.4,1.7-36.4-4.3-50.3-18.1
		c-2.8-2.7-2.7-2.7-6.1-1.1c-25.3,12-50.6,12.1-75.3-1c-24.7-13-38.8-34-43.2-61.5C67.5,125.7,67.5,120.6,67.2,115.1z"/>
	<linearGradient id="SVGID_2_" gradientUnits="userSpaceOnUse" x1="203.8559" y1="212.6638" x2="19.4075" y2="105.0238">
		<stop  offset="0" style="stop-color:#2A7DFC"/>
		<stop  offset="1" style="stop-color:#0255D4"/>
	</linearGradient>
	<path class="st1" d="M204.1,210.7c6.6,2.4,13.1,4.7,19.9,7.2c-13,24.2-32.6,40.3-60,44.2c-42.2,6-71.9-12.6-90.9-50.3
		c-18.5,2.7-35.5-1.7-50.2-13.9c-10.5-8.7-17.3-19.9-20.6-33.1c-6.5-26.2,4.7-53.1,27.9-68c20-12.8,55.9-14.9,79.7,11.7
		c33.7-16,65.6-13.7,94.5,10.5c22.9,19.2,29.6,47.8,27.7,65.8c-0.8-0.1-1.6-0.1-2.4-0.3c-6.6-1.5-12.4-4.6-17.2-9.4
		c-0.7-0.7-1.2-1.8-1.4-2.8c-2.3-14.1-8.4-26.3-18.9-36.1c-10.4-9.8-22.7-15.3-36.9-16.5c-17.3-1.4-32.4,3.7-45.5,14.9
		c-4.1,3.5-6.8,2.9-9.3-2c-7.8-15.5-20.5-23.8-37.8-24c-19.9-0.3-37.2,14.7-40.5,34.3c-4.6,27.2,17.9,51.5,45.1,48.3
		c4.8-0.6,9.6-2.2,14-4.2c4.2-2,7.5-0.5,8.4,4.5c3.2,18.5,13,32.7,29,42.3c18.1,10.7,37.1,11.8,56.4,3.3
		c11.6-5.1,20.7-13.3,27.4-24.1C203.1,212.2,203.6,211.5,204.1,210.7z"/>
</g>
</svg>
