<svg id="Layer_1" data-name="Layer 1" xmlns="http://www.w3.org/2000/svg" viewBox="0 0 300 300"><defs><style>.cls-1{fill:#303165;}.cls-1,.cls-2{fill-rule:evenodd;}.cls-2,.cls-3{fill:#3b6aac;}</style></defs><title>-icon-color</title><path class="cls-1" d="M43.42,154.19l-7.74,28.32H27.59L22,161.05h-.18L16,182.51H8.06L.5,154.19H6.13l6,23.92h.17l.88-4.05a37.26,37.26,0,0,1,1.06-4.22l4.4-15.48h6.5l6.34,23.92h.17l.88-4.22c.53-2.11.88-3.51,1.06-4l4.22-15.48h5.63Z"/><path class="cls-1" d="M54.67,162.63c3.87,0,6.51.53,7.56,1.76,1.24,1.23,1.76,3.87,1.76,7.74,0,4.4-.52,7.21-1.76,8.62s-3.69,2.11-7.56,2.11c-4,0-6.68-.71-7.91-1.76-1.23-1.41-1.76-4.22-1.76-8.44s.53-6.86,1.76-8.09C48.16,163.16,50.63,162.63,54.67,162.63Zm0,3.69c-1.93,0-3.34.36-3.87,1.06s-.88,2.46-.88,4.92c0,3,.35,4.75.88,5.63.53.71,1.76,1.06,3.87,1.06,1.94,0,3.17-.35,3.87-1.23.53-.88.88-2.64.88-5.63,0-2.64-.35-4.22-.88-4.93C58,166.68,56.78,166.32,54.67,166.32Z"/><path class="cls-1" d="M78.42,162.46c3.51,0,5.27,2.28,5.27,6.68v1.41H79.12v-1.06c0-2.11-.88-3.17-2.46-3.17-2.47,0-3.52,1.59-3.52,4.75v11.61H68.39V162.81h4.75l-.35,2.81h0A6.14,6.14,0,0,1,78.42,162.46Z"/><polygon class="cls-1" points="91.08 154.19 91.08 170.55 92.49 170.55 97.76 162.81 103.39 162.81 96.36 172.13 104.97 182.51 98.99 182.51 92.31 173.71 91.08 173.71 91.08 182.51 86.33 182.51 86.33 154.19 91.08 154.19"/><polygon class="cls-1" points="130.48 143.46 94.07 143.46 67.16 124.11 100.93 124.11 112.19 135.9 123.27 124.11 157.21 124.11 130.48 143.46"/><path class="cls-2" d="M124.15,164.57c1,1.4,1.58,3.87,1.58,7.73,0,4-.53,6.86-1.58,8.27s-3.17,2.11-6.34,2.11-5.27-1.05-6.15-3.34h-.18l.18,3.17h-4.75V154.19h4.75v11.43h.17q1.32-3.17,6.34-3.16C121.16,162.46,123.27,163.16,124.15,164.57Zm-7.57,1.75c-3.16,0-4.75,1.94-4.75,5.81,0,3,.36,4.92.88,5.8s1.76,1.23,3.52,1.23c1.94,0,3.17-.35,3.87-1.23.53-.88.88-2.64.88-5.45,0-2.64-.35-4.22-.88-5.1C119.57,166.68,118.34,166.32,116.58,166.32Z"/><path class="cls-2" d="M138.74,162.63c3.87,0,6.51.53,7.74,1.76,1.23,1.41,1.76,3.87,1.76,7.74,0,4.22-.53,7.21-1.76,8.62-1,1.4-3.52,2.11-7.38,2.11-4,0-6.69-.71-7.92-1.76-1.23-1.41-1.93-4.22-1.93-8.44,0-4,.52-6.86,1.75-8.09C132.06,163.16,134.7,162.63,138.74,162.63Zm0,3.69c-2.11,0-3.34.36-3.87,1.06s-.88,2.29-.88,4.92c0,3,.18,4.75.88,5.63.53.71,1.76,1.06,3.87,1.06,1.94,0,3.35-.35,3.87-1.23s.88-2.64.88-5.63c0-2.64-.35-4.22-.88-4.93A6.59,6.59,0,0,0,138.74,166.32Z"/><path class="cls-2" d="M161.08,162.63c3.87,0,6.51.53,7.56,1.76,1.23,1.23,1.76,3.87,1.76,7.74,0,4.4-.53,7.21-1.76,8.62-1,1.4-3.51,2.11-7.56,2.11s-6.68-.71-7.91-1.76c-1.24-1.41-1.94-4.22-1.94-8.44,0-4,.53-6.86,1.76-8.09C154.4,163.16,157,162.63,161.08,162.63Zm0,3.69c-1.93,0-3.34.36-3.87,1.06s-.88,2.46-.88,4.92c0,3,.18,4.75.88,5.63.53.71,1.76,1.06,3.87,1.06,1.94,0,3.17-.35,3.87-1.23.53-.88.88-2.64.88-5.63,0-2.64-.35-4.22-.88-4.93A6.59,6.59,0,0,0,161.08,166.32Z"/><polygon class="cls-2" points="179.37 154.19 179.37 170.55 180.6 170.55 186.06 162.81 191.68 162.81 184.65 172.13 193.09 182.51 187.11 182.51 180.6 173.71 179.37 173.71 179.37 182.51 174.45 182.51 174.45 154.19 179.37 154.19"/><path class="cls-2" d="M210.33,163.69c1.23.88,1.76,2.28,1.76,4.57h-4.75v-.35c-.18-.88-.35-1.59-.88-1.76a11.42,11.42,0,0,0-3.34-.35c-2.47,0-3.7.88-3.7,2.46,0,1.05.18,1.76.71,1.93a22.3,22.3,0,0,0,4.57.53c3.34.18,5.63.53,6.68,1.41,1.06.7,1.59,2.29,1.59,4.4,0,2.46-.71,4.22-1.94,5.1-1.41.88-4,1.4-7.56,1.4-3.34,0-5.81-.35-7-1.23s-1.93-2.46-1.93-4.75v-.52h5.1l-.18.7c-.17,1.76,1.06,2.64,4.05,2.64S208,179,208,177.23c0-1.58-.88-2.46-2.81-2.46-4.22,0-7-.35-8.45-1.23s-2.11-2.47-2.11-5.1c0-2.29.71-3.7,1.94-4.58s3.69-1.23,7.21-1.23C206.81,162.46,209.1,162.81,210.33,163.69Z"/><rect class="cls-3" x="216.31" y="177.41" width="4.75" height="5.1"/><path class="cls-2" d="M230.55,167.38c-.52.7-.88,2.64-.88,5.45s.36,4.4.88,5.1,1.76,1.06,4,1.06c1.76,0,2.81-.18,3.17-.71.52-.52.7-1.58.7-3.34h4.75v.71l-.35,3c-.53,2.63-3.52,4-8.62,4-3.87,0-6.33-.7-7.57-1.93s-1.93-4.05-1.93-8.09.7-6.69,1.93-8.09,3.7-2.11,7.22-2.11,5.8.52,7,1.4c1.23,1.06,1.94,2.82,1.94,5.63h-4.75c0-2.29-1.41-3.52-4.05-3.52C232.31,166.32,231.08,166.68,230.55,167.38Z"/><path class="cls-2" d="M255.71,162.63c3.86,0,6.5.53,7.73,1.76,1.24,1.41,1.76,3.87,1.76,7.74,0,4.22-.52,7.21-1.76,8.62-1.05,1.4-3.51,2.11-7.38,2.11-4.05,0-6.69-.71-7.92-1.76-1.23-1.41-1.93-4.22-1.93-8.44,0-4,.53-6.86,1.76-8.09C249.2,163.16,251.66,162.63,255.71,162.63Zm0,3.69c-2.12,0-3.35.36-3.87,1.06s-.88,2.29-.88,4.92c0,3,.35,4.75.88,5.63.52.71,1.75,1.06,3.87,1.06,1.93,0,3.34-.35,3.86-1.23s.88-2.64.88-5.63c0-2.64-.35-4.22-.88-4.93C259.05,166.68,257.64,166.32,255.71,166.32Z"/><path class="cls-2" d="M278.39,166.32c-3,0-4.39,1.59-4.39,4.75v11.44h-4.75v-19.7H274v3h0c1.05-2.11,3-3.34,6.15-3.34,3.7,0,5.63,1.23,6.16,3.69h0c.88-2.46,3-3.69,6.15-3.69,4.58,0,7,2.28,7,6.85v13.2h-4.75v-12c0-2.82-1.23-4.23-3.52-4.23-3,0-4.39,1.59-4.39,4.75v11.61h-4.93V170.37a5.54,5.54,0,0,0-.7-3.34C280.86,166.5,280,166.32,278.39,166.32Z"/><polygon class="cls-2" points="153.17 143.46 143.32 136.43 160.2 124.11 171.46 135.9 196.26 117.78 190.28 111.1 224.57 105.47 213.32 137.83 207.34 130.62 189.57 143.46 153.17 143.46"/></svg>