<?xml version="1.0" encoding="utf-8"?>
<!-- Generator: Adobe Illustrator 24.0.3, SVG Export Plug-In . SVG Version: 6.00 Build 0)  -->
<svg version="1.1" id="Layer_1" xmlns="http://www.w3.org/2000/svg" xmlns:xlink="http://www.w3.org/1999/xlink" x="0px" y="0px"
	 viewBox="0 0 300 300" style="enable-background:new 0 0 300 300;" xml:space="preserve">
<style type="text/css">
	.st0{fill:#2D3D47;}
	.st1{fill:#2E3E48;}
	.st2{fill:#2F3F49;}
	.st3{fill:#01467C;}
</style>
<g>
	<g id="YYGou7_1_">
		<g>
			<path class="st0" d="M0.6,80.1c0.6,0,1,0,1.4,0c11.5,0,23,0,34.5,0c0.8,0,1.5,0.2,2.1,0.8c11,10.6,22,21.1,33.1,31.7
				c0.8,0.7,0.7,1.1,0,1.8c-5.5,5.2-11,10.5-16.4,15.7c-0.6,0.5-0.9,0.7-1.5,0.1c-17.5-16.5-35.1-33-52.6-49.5
				C1,80.5,0.9,80.4,0.6,80.1z"/>
			<path class="st0" d="M1.2,191.5c1.3-1.4,2.6-3.1,4.1-4.5c16.1-15.5,32.3-30.9,48.4-46.4c0.6-0.6,1-0.8,1.8-0.1
				c5.4,5.2,10.9,10.3,16.4,15.4c0.7,0.6,0.7,0.9,0,1.6c-11.8,11-23.5,22.1-35.3,33.2c-0.4,0.4-0.8,0.7-1.5,0.7
				C23.7,191.5,12.3,191.5,1.2,191.5z"/>
			<path class="st1" d="M151.7,227.2c4.1,0,8.3,0,12.4,0c0.5,0,1.1-0.2,1.1,0.7c-0.1,4.6,0.3,9.2-0.5,13.8c-1,6.2-3.8,8.9-10,10.1
				c-2.2,0.4-4.5,0.7-6.8,0.8c-7.2,0.1-14.5,0.4-21.7-0.3c-2-0.2-3.9-0.6-5.8-1.2c-3.4-1.1-5.5-3.4-6.6-6.8
				c-0.5-1.5-0.8-3.1-0.9-4.6c-0.3-6-0.5-12,0.4-18c0.2-1,0.4-2,0.7-2.9c1.1-3.7,3.5-6,7.1-7.1c2.9-0.9,5.8-1.3,8.8-1.4
				c7.4-0.1,14.7-0.4,22.1,0.4c1.7,0.2,3.3,0.5,4.9,0.9c5,1.4,7.5,4.3,8,9.5c0.2,2.3,0.2,2.3-2.1,2.3c-2.5,0-5.1,0-7.6,0
				c-0.7,0-1-0.1-1.1-0.9c-0.1-1.3-1-2.1-2.2-2.3c-1.1-0.3-2.2-0.4-3.4-0.5c-5.7-0.2-11.3-0.2-17-0.1c-1.6,0-3.1,0.3-4.6,0.8
				c-1.4,0.5-2.4,1.4-2.9,2.9c-0.3,0.9-0.6,1.9-0.6,2.8c-0.3,4.1-0.4,8.1,0.1,12.2c0.4,2.6,1.8,4.2,4.4,4.7c1.2,0.2,2.4,0.4,3.7,0.4
				c6.1,0.1,12.2,0.4,18.3-0.4c3.2-0.4,4.2-1.7,4.2-4.9c0,0,0-0.1,0-0.1c0-2.6,0-2.6-2.5-2.6c-4.1,0-8.2,0-12.2,0
				c-0.9,0-1.2-0.3-1.1-1.2c0.1-2,0.1-4,0-5.9c0-0.9,0.2-1.2,1.2-1.2C143.5,227.2,147.6,227.2,151.7,227.2z"/>
			<path class="st1" d="M63.7,221.1c0,1.7,0,3,0,4.4c0,8.6,0,17.2,0,25.8c0,1.2-0.4,1.4-1.5,1.4c-2.7-0.1-5.4-0.1-8,0
				c-0.8,0-1-0.2-1-1c0-13.4,0-26.9,0-40.3c0-0.7,0.2-1,0.9-1c4.7,0,9.3,0,14,0c0.8,0,1.2,0.4,1.6,0.9c7.8,8.8,15.6,17.5,23.4,26.3
				c0.4,0.5,0.9,1,1.6,1.7c0-0.8,0-1.3,0-1.7c0-8.6,0-17.2,0-25.8c0-1.1,0.3-1.4,1.4-1.4c2.7,0.1,5.4,0.1,8.2,0
				c0.8,0,1.1,0.1,1.1,1.1c0,13.4,0,26.8,0,40.2c0,0.8-0.2,1.1-1,1.1c-3.6,0-7.2,0-10.8,0c-0.8,0-1.2-0.4-1.6-0.9
				c-9.1-9.9-18.2-19.9-27.3-29.8C64.4,221.8,64.2,221.5,63.7,221.1z"/>
			<path class="st1" d="M234.6,239.3c0-0.8,0-1.2,0-1.6c0-8.6,0-17.3,0-25.9c0-1.1,0.3-1.4,1.4-1.4c2.7,0.1,5.4,0.1,8.2,0
				c0.8,0,1.2,0.1,1.2,1c0,13.4,0,26.8,0,40.2c0,0.9-0.3,1.1-1.1,1.1c-3.5,0-6.9,0-10.4,0c-0.8,0-1.4-0.3-1.9-0.9
				c-9.1-10-18.3-19.9-27.4-29.9c-0.2-0.2-0.4-0.4-0.6-0.6c-0.3,0.5-0.2,1-0.2,1.4c0,9.5,0,19,0,28.6c0,1.1-0.2,1.4-1.4,1.4
				c-2.7-0.1-5.4-0.1-8.2,0c-0.8,0-1-0.2-1-1c0-13.4,0-26.8,0-40.2c0-0.9,0.2-1.1,1.1-1.1c4.5,0,9,0,13.4,0c0.9,0,1.4,0.2,2,0.9
				c7.7,8.7,15.5,17.4,23.3,26.2C233.4,237.9,233.8,238.5,234.6,239.3z"/>
			<path class="st2" d="M276.3,252.6c-7,0-14,0-21.1,0c-1,0-1.4-0.2-1.4-1.3c0-13.2,0-26.4,0-39.6c0-1,0.2-1.3,1.3-1.3
				c14.2,0,28.4,0,42.5,0c0.9,0,1.2,0.1,1.2,1.1c-0.1,2.1-0.1,4.1,0,6.2c0,1-0.3,1.1-1.2,1.1c-10.6,0-21.3,0-31.9,0
				c-1.1,0-1.5,0.2-1.5,1.4c0.1,1.7,0.1,3.3,0,5c-0.1,1.1,0.3,1.4,1.4,1.4c10.2,0,20.4,0,30.6-0.1c1.2,0,1.6,0.2,1.5,1.5
				c-0.1,1.8-0.1,3.6,0,5.4c0.1,1.3-0.2,1.7-1.6,1.7c-10.1-0.1-20.2,0-30.3-0.1c-1.3,0-1.6,0.4-1.6,1.6c0.1,2.1,0.1,4.2,0,6.3
				c0,1,0.3,1.2,1.3,1.2c10.6,0,21.2,0,31.7-0.1c1.3,0,1.6,0.4,1.5,1.6c-0.1,1.8-0.1,3.6,0,5.4c0.1,1.3-0.4,1.5-1.6,1.5
				C290.2,252.6,283.3,252.6,276.3,252.6z"/>
			<path class="st2" d="M23,252.6c-7.1,0-14.1,0-21.2,0c-1.1,0-1.3-0.3-1.3-1.3c0-13.2,0-26.4,0-39.6c0-1.1,0.3-1.4,1.4-1.4
				c14.1,0,28.2,0,42.3,0c1,0,1.5,0.2,1.4,1.3c-0.1,1.9-0.1,3.8,0,5.7c0.1,1.1-0.2,1.5-1.4,1.5c-10.6-0.1-21.2,0-31.7-0.1
				c-1.1,0-1.5,0.2-1.4,1.3c0.1,1.7,0.1,3.5,0,5.3c-0.1,1,0.3,1.2,1.3,1.2c10.2,0,20.5,0,30.7-0.1c1.2,0,1.5,0.4,1.5,1.5
				c-0.1,1.9-0.1,3.9,0,5.8c0,1-0.3,1.2-1.3,1.2c-10.2,0-20.5,0-30.7-0.1c-1.2,0-1.5,0.4-1.5,1.5c0.1,2.1,0.1,4.1,0,6.2
				c0,1.1,0.2,1.5,1.4,1.5c10.6-0.1,21.2,0,31.7-0.1c1.1,0,1.5,0.2,1.4,1.3c-0.1,1.9-0.1,3.9,0,5.8c0.1,1.1-0.2,1.4-1.4,1.4
				C37.1,252.6,30,252.6,23,252.6z"/>
			<path class="st1" d="M184.2,214c0,6,0,11.6,0,17.3c0,6.7,0,13.3,0,20c0,1.2-0.3,1.4-1.5,1.4c-2.7-0.1-5.3-0.1-8,0
				c-0.8,0-1.1-0.2-1.1-1c0-9.3,0-18.7,0-28c0-0.5,0-0.8,0.4-1.2C177.4,219.7,180.7,216.9,184.2,214z"/>
		</g>
	</g>
	<path class="st3" d="M235.8,191.5c-20.4,0-40.8,0-61.2,0c-1.3,0-1.5-0.4-1.5-1.6c0.1-8.6-0.1-17.2,0.1-25.8
		c0.2-8.8,3-16.6,9.7-22.7c5.1-4.6,11.1-7.2,17.7-8.7c4.7-1.1,9.4-1.4,14.2-1.6c7.5-0.4,14.9-1,22.3-1.4c6.2-0.4,12.4-1,18.7-1.2
		c3-0.1,5.9-0.4,8.8-1.3c3.3-1,5.4-3.2,6.3-6.5c0.9-3.2,1-6.5,0.4-9.8c-0.9-4.4-3.7-6.8-7.9-7.8c-3.8-0.9-7.6-1.2-11.5-1.3
		c-9.9-0.2-19.8-0.2-29.6,0c-3.1,0.1-6.2,0.4-9.3,1c-6.7,1.3-9.6,4.3-10.6,11.1c-0.3,2.1-0.5,4.2-0.5,6.3c0,0.7-0.2,0.9-0.9,0.9
		c-8.7,0-17.5,0-26.2,0c-0.5,0-0.9,0-0.9-0.7c0.1-7.5,0.7-14.8,3.5-21.8c2.9-7.2,8.3-11.8,15.4-14.6c6.4-2.6,13.1-3.9,20-4.2
		c15.6-0.7,31.3-0.6,46.9,0c6.8,0.3,13.6,1.3,20.3,3.1c9.4,2.6,15.3,8.6,17.6,18c2.4,9.6,2.7,19.3,0.4,28.9
		c-2.1,9.1-7.8,14.9-16.7,17.8c-6.5,2.1-13.3,2.9-20.1,3.1c-8,0.2-16,1-24.1,1.5c-5.4,0.3-10.8,0.6-16.2,0.9c-4,0.2-8,0.8-11.7,2.2
		c-2.7,1-5.1,2.5-6.8,5c-1.7,2.6-1.5,5.4-1.5,8.3c0,0.5,0.3,0.6,0.7,0.6c0.4,0,0.7,0,1.1,0c31.5,0,63,0,94.6,0
		c1.2,0,1.5,0.2,1.5,1.5c-0.1,6.5-0.1,13,0,19.5c0,1.1-0.3,1.4-1.4,1.4C276.9,191.5,256.3,191.5,235.8,191.5z"/>
	<path class="st3" d="M154,191.5c-0.7,0-1,0-1.4,0c-10.8,0-21.7,0-32.5,0c-0.9,0-1.5-0.3-2.1-0.8c-19.2-18.1-38.5-36.2-57.7-54.3
		c-0.9-0.8-0.9-1.2,0-2c16.7-15.9,34.1-30.9,52.9-44.2C131.7,77,151.3,65.8,172.8,58c20.4-7.4,41.4-11.3,63.1-10.6
		c17.7,0.5,34.9,4.1,51.6,10.1c0.7,0.2,1.3,0.5,2,0.8c0.1,0,0.1,0.1,0.1,0.3c-0.5,0.2-1-0.2-1.4-0.3c-16.1-3.9-32.5-5.2-49-3.6
		c-24.7,2.3-47.4,10.5-69,22.3c-18.5,10.2-35.4,22.8-51.4,36.6c-7.7,6.7-15.1,13.7-22.4,20.8c-0.9,0.9-0.7,1.2,0.1,2
		c18.9,18.1,37.8,36.2,56.7,54.3C153.4,190.8,153.6,191,154,191.5z"/>
	<path class="st3" d="M173.7,219.2c0-2.9,0-5.5,0-8.1c0-0.6,0.3-0.7,0.8-0.7c3.1,0,6.2,0,9.7,0C180.6,213.4,177.2,216.2,173.7,219.2
		z"/>
</g>
</svg>
