<svg id="Layer_1" data-name="Layer 1" xmlns="http://www.w3.org/2000/svg" xmlns:xlink="http://www.w3.org/1999/xlink" viewBox="0 0 300 300"><defs><style>.cls-1{fill:#dc7e28;}.cls-2{fill:url(#linear-gradient);}.cls-3{fill:#fdd600;}.cls-4{fill:#8fc6e9;}.cls-5{fill:url(#linear-gradient-2);}.cls-6{fill:#0697d4;}.cls-7{fill:url(#linear-gradient-3);}.cls-8{fill:#94cd9e;}.cls-9{fill:#69be6d;}.cls-10{fill:url(#linear-gradient-4);}.cls-11{fill:#761116;}.cls-12{fill:#fff;}.cls-13{fill:#eb463e;}</style><linearGradient id="linear-gradient" x1="224.36" y1="107.33" x2="288.68" y2="178.19" gradientUnits="userSpaceOnUse"><stop offset="0.01" stop-color="#f7c419"/><stop offset="1" stop-color="#e68d24"/></linearGradient><linearGradient id="linear-gradient-2" x1="152.66" y1="115.97" x2="218.99" y2="169.24" gradientUnits="userSpaceOnUse"><stop offset="0.01" stop-color="#1c89c9"/><stop offset="1" stop-color="#00649d"/></linearGradient><linearGradient id="linear-gradient-3" x1="116.48" y1="118.86" x2="116.48" y2="176.99" gradientUnits="userSpaceOnUse"><stop offset="0" stop-color="#249e49"/><stop offset="1" stop-color="#008953"/></linearGradient><linearGradient id="linear-gradient-4" x1="32.16" y1="113.18" x2="42.15" y2="173.53" gradientUnits="userSpaceOnUse"><stop offset="0" stop-color="#d71f31"/><stop offset="1" stop-color="#ba2537"/></linearGradient></defs><title>-icon-color</title><polygon class="cls-1" points="299.5 97.94 299.5 168.86 289.87 178.5 289.87 109.06 299.5 97.94"/><rect class="cls-2" x="225.02" y="109.06" width="64.85" height="69.44"/><polygon class="cls-3" points="235.18 97.98 225.02 109.06 289.87 109.06 299.5 97.94 235.18 97.98"/><polygon class="cls-4" points="154.86 101.03 218.65 92.16 213.31 107.45 150.4 116.04 154.86 101.03"/><polygon class="cls-5" points="213.31 107.45 222.15 169.66 159.25 178.5 150.4 116.04 213.31 107.45"/><polyline class="cls-6" points="213.31 107.45 222.15 169.66 226.97 156.23 218.7 92.54 218.65 92.16"/><polygon class="cls-7" points="100.99 95.72 157.46 121.2 131.98 179.05 75.51 153.57 100.99 95.72"/><polygon class="cls-8" points="95.13 75.92 100.99 95.72 157.46 121.2 152.71 102.28 95.13 75.92"/><polygon class="cls-9" points="95.13 75.92 72.4 129.86 75.51 153.57 100.99 95.72 95.13 75.92"/><polygon class="cls-10" points="63.62 107.36 72.93 168.58 10.52 178.36 0.5 117.03 63.62 107.36"/><polygon class="cls-11" points="67.89 85.07 77.13 146.88 72.93 168.58 63.62 107.36 67.89 85.07"/><path class="cls-12" d="M280,134a25.82,25.82,0,0,0-5.7-8.67,24.31,24.31,0,0,0-8.09-5.54A25,25,0,0,0,256.5,118a25.45,25.45,0,0,0-9.77,1.86,23.9,23.9,0,0,0-8.09,5.55A24.9,24.9,0,0,0,233,134a28.81,28.81,0,0,0-1.89,10.56A28.44,28.44,0,0,0,233,155.07a26.17,26.17,0,0,0,5.63,8.73,23.47,23.47,0,0,0,8,5.46,25.76,25.76,0,0,0,9.86,1.85,25.22,25.22,0,0,0,9.66-1.85,24.61,24.61,0,0,0,8.11-5.45,26.22,26.22,0,0,0,5.7-8.72A29.66,29.66,0,0,0,280,134Zm-13.33,22.88a13.77,13.77,0,0,1-20.35,0c-2.49-3-3.75-7.1-3.76-12.37s1.26-9.55,3.74-12.57,5.85-4.5,10.22-4.51A12.43,12.43,0,0,1,266.64,132c2.48,3,3.74,7.19,3.74,12.57S269.12,153.92,266.64,156.92ZM42.28,142.85Zm14.64,16a4.37,4.37,0,0,0-2-1.3,9.23,9.23,0,0,0-3-.43,22.56,22.56,0,0,0-3.82.37l-16.47,2.81a15.8,15.8,0,0,1,1.92-5,67.75,67.75,0,0,1,5.49-8.2h0l1.9-2.54c.31-.39.75-1,1.32-1.72q5.65-7.41,7-12.12a24.83,24.83,0,0,0,.94-5.42c0-.5,0-1,0-1.48a22.48,22.48,0,0,0-.32-3.85,10.27,10.27,0,0,0-.86-2.87,4.1,4.1,0,0,0-1.45-1.72,5.51,5.51,0,0,0-2.85-.58,21.72,21.72,0,0,0-3.67.37l-19,3.25a9.75,9.75,0,0,0-5.09,2.1,4.05,4.05,0,0,0-1.31,3.06,5.58,5.58,0,0,0,.09,1,4.26,4.26,0,0,0,2.47,3.4,6.89,6.89,0,0,0,2.9.54,14.94,14.94,0,0,0,2.54-.24l15.93-2.69a8.24,8.24,0,0,1,0,.85,8.45,8.45,0,0,1-.52,2.92,23,23,0,0,1-3.53,5.6c-.54.65-1.36,1.67-2.46,3.05a76.46,76.46,0,0,0-9.23,13.34h0a28.82,28.82,0,0,0-2.75,7.51,21,21,0,0,0-.44,4.14,16.37,16.37,0,0,0,.23,2.75,11,11,0,0,0,1,3.16,4.12,4.12,0,0,0,1.63,1.82,6.12,6.12,0,0,0,2.79.47,40.05,40.05,0,0,0,6.46-.7l17.27-3c3.06-.53,5.18-1.26,6.42-2.27A4,4,0,0,0,58,162a6.24,6.24,0,0,0-.09-1A4.48,4.48,0,0,0,56.92,158.83Zm78.33-41.37a23.75,23.75,0,0,0-8.07-5.52,24.2,24.2,0,0,0-9.51-2h-.14a23.8,23.8,0,0,0-9.62,2.16h0a26.11,26.11,0,0,0-8.64,6.05,32.66,32.66,0,0,0-8.5,20.07c0,.41,0,.82,0,1.22a27.49,27.49,0,0,0,1.62,9.29,23.09,23.09,0,0,0,5.09,8.3,24.25,24.25,0,0,0,8.24,5.56h0a23.89,23.89,0,0,0,9.47,2h.08a24.55,24.55,0,0,0,9.6-2.07h0a27.46,27.46,0,0,0,8.71-6.12,32.12,32.12,0,0,0,8.51-20c0-.35,0-.69,0-1a26.91,26.91,0,0,0-1.71-9.43A24.16,24.16,0,0,0,135.25,117.46Zm-6.18,25.2q-3.19,7.51-8.42,10.35a11.79,11.79,0,0,1-5.74,1.53,13.63,13.63,0,0,1-5.31-1.16,12.18,12.18,0,0,1-7.48-8.21,14.87,14.87,0,0,1-.54-4,23.83,23.83,0,0,1,2.13-9.23c2.17-5.13,5-8.63,8.49-10.54a11.7,11.7,0,0,1,5.75-1.54,13.68,13.68,0,0,1,5.38,1.18,12,12,0,0,1,7.41,8.22,15,15,0,0,1,.51,4A24.53,24.53,0,0,1,129.07,142.66Zm73.54-23.29a7.06,7.06,0,0,0-2-4.37,4.55,4.55,0,0,0-3.14-1.16,6.43,6.43,0,0,0-1,.08,4.88,4.88,0,0,0-3.65,2.24,6,6,0,0,0-.83,3.24,10.1,10.1,0,0,0,.12,1.51l2.29,16.19-18.08,2.66-2.29-16.19a7.17,7.17,0,0,0-2-4.33A4.33,4.33,0,0,0,169,118a6.58,6.58,0,0,0-.87.06,5.12,5.12,0,0,0-3.78,2.22,5.81,5.81,0,0,0-.85,3.25,10.73,10.73,0,0,0,.12,1.55l6.19,42.1a6.79,6.79,0,0,0,2.07,4.35,4.77,4.77,0,0,0,3.2,1.12,7.8,7.8,0,0,0,1.06-.08,4.62,4.62,0,0,0,3.49-2.23,6.18,6.18,0,0,0,.77-3.17,10.25,10.25,0,0,0-.12-1.53L177.71,149l18.09-2.65L198.33,163a6.79,6.79,0,0,0,2,4.33,4.6,4.6,0,0,0,3.17,1.15,6.42,6.42,0,0,0,1-.07,4.82,4.82,0,0,0,3.62-2.22,6.09,6.09,0,0,0,.79-3.19,10.49,10.49,0,0,0-.12-1.54Z"/><polygon class="cls-13" points="0.5 117.03 1.74 110.87 4.88 95.17 67.89 85.07 63.62 107.36 0.5 117.03"/><path d="M116.27,213.26a10.81,10.81,0,0,1-4-4,11.51,11.51,0,0,1,0-11.22,10.84,10.84,0,0,1,4-4,11.17,11.17,0,0,1,5.63-1.46,10.24,10.24,0,0,1,7.93,3.46L127,198.77a6.44,6.44,0,0,0-5.09-2.39,7.32,7.32,0,0,0-3.61.9,6.43,6.43,0,0,0-2.56,2.56,8.23,8.23,0,0,0,0,7.64,6.56,6.56,0,0,0,2.56,2.56,7.32,7.32,0,0,0,3.61.9,6.93,6.93,0,0,0,5.59-2.78l2.84,2.69a10.59,10.59,0,0,1-3.71,2.89,11.22,11.22,0,0,1-4.75,1A11.08,11.08,0,0,1,116.27,213.26Z"/><path d="M134.06,193.06h7.73a7.72,7.72,0,0,1,3.68.86,6.17,6.17,0,0,1,2.5,2.38,6.67,6.67,0,0,1,.89,3.45,5.6,5.6,0,0,1-1.29,3.63,7.24,7.24,0,0,1-3.24,2.29l0,.21L150,214v.23H145.4l-5.48-8h-1.86v8h-4Zm7.7,9.56a3,3,0,0,0,2.22-.83,2.8,2.8,0,0,0,.86-2.1,2.87,2.87,0,0,0-3-2.93h-3.76v5.86Z"/><path d="M152.83,193.06H158L163.6,208h.24l5.62-14.89h5.18v21.19h-4V203.81l.23-3.53h-.23l-5.39,14h-3.11l-5.42-14h-.23l.23,3.53v10.44h-3.93Z"/></svg>